<svg width="55" height="56" viewBox="0 0 55 56" fill="none" xmlns="http://www.w3.org/2000/svg">
<circle cx="27.3333" cy="28" r="25.8333" fill="white" stroke="#323232" stroke-width="3"/>
<rect x="24.3333" y="3" width="3.33333" height="38.3333" fill="#323232"/>
<rect width="1.66667" height="9" transform="matrix(1 0 0 -1 25 53)" fill="#323232"/>
<path d="M29.3333 3C31.1743 3 32.6667 4.49238 32.6667 6.33333V41.3333H29.3333V3Z" fill="#323232"/>
<rect width="1.66667" height="9" transform="matrix(1 0 0 -1 28.6667 53)" fill="#323232"/>
<path d="M5 38H24.3333V41.3333H8.33334C6.49239 41.3333 5 39.8409 5 38Z" fill="#323232"/>
<path d="M8.66667 44H25.6667V45.6667H10.3333C9.41286 45.6667 8.66667 44.9205 8.66667 44Z" fill="#323232"/>
<path d="M28.6667 44H45.6667C45.6667 44.9205 44.9205 45.6667 44 45.6667H28.6667V44Z" fill="#323232"/>
<path d="M29.6667 38H49.6667C49.6667 39.8409 48.1743 41.3333 46.3333 41.3333H29.6667V38Z" fill="#323232"/>
<circle cx="20.6667" cy="23" r="1.66667" fill="#323232"/>
<circle cx="36.3333" cy="23" r="1.66667" fill="#323232"/>
<circle cx="39.5" cy="47.5" r="0.833333" fill="#323232"/>
<circle cx="15.1667" cy="47.5" r="0.833333" fill="#323232"/>
</svg>
