<svg width="146" height="150" viewBox="0 0 146 150" fill="none" xmlns="http://www.w3.org/2000/svg">
<circle cx="73" cy="75" r="73" fill="#0A0908"/>
<rect x="61" width="10" height="115" fill="white"/>
<rect width="5" height="27" transform="matrix(1 0 0 -1 66 150)" fill="white"/>
<path d="M76 0H82C84.2091 0 86 1.79086 86 4V115H76V0Z" fill="white"/>
<rect width="5" height="27" transform="matrix(1 0 0 -1 77 150)" fill="white"/>
<path d="M6 105H64V115H12C8.68629 115 6 112.314 6 109V105Z" fill="white"/>
<path d="M17 123H68V128H22C19.2386 128 17 125.761 17 123Z" fill="white"/>
<path d="M77 123H128C128 125.761 125.761 128 123 128H77V123Z" fill="white"/>
<path d="M80 105H140V108C140 111.866 136.866 115 133 115H80V105Z" fill="white"/>
<circle cx="48" cy="60" r="5" fill="white"/>
<circle cx="99" cy="60" r="5" fill="white"/>
<circle cx="109.5" cy="133.5" r="2.5" fill="white"/>
<path d="M39 133.5C39 134.881 37.8807 136 36.5 136C35.1193 136 34 134.881 34 133.5C34 132.119 35.1193 131 36.5 131C37.8807 131 39 132.119 39 133.5Z" fill="white"/>
</svg>
