<svg width="251" height="235" viewBox="0 0 251 235" fill="none" xmlns="http://www.w3.org/2000/svg">
<g style="mix-blend-mode:luminosity">
<g style="mix-blend-mode:luminosity">
<path d="M251 56C251 97.4214 163.204 235 119.693 235C76.1813 235 0.692749 135.421 0.692749 94C0.692749 52.5786 76.1813 0 119.693 0C163.204 0 251 14.5787 251 56Z" fill="white"/>
</g>
<g style="mix-blend-mode:luminosity">
<path d="M199.125 47.25H42.875V78.5H199.125V47.25Z" fill="#79BD9A"/>
<path d="M67.875 37.875C67.875 34.4232 65.0769 31.625 61.625 31.625C58.1731 31.625 55.375 34.4232 55.375 37.875V56.625C55.375 60.0769 58.1731 62.875 61.625 62.875C65.0769 62.875 67.875 60.0769 67.875 56.625V37.875Z" fill="white"/>
<path d="M92.875 37.875C92.875 34.4232 90.0769 31.625 86.625 31.625C83.1731 31.625 80.375 34.4232 80.375 37.875V56.625C80.375 60.0769 83.1731 62.875 86.625 62.875C90.0769 62.875 92.875 60.0769 92.875 56.625V37.875Z" fill="white"/>
<path d="M161.625 37.875C161.625 34.4232 158.827 31.625 155.375 31.625C151.923 31.625 149.125 34.4232 149.125 37.875V56.625C149.125 60.0769 151.923 62.875 155.375 62.875C158.827 62.875 161.625 60.0769 161.625 56.625V37.875Z" fill="white"/>
<path d="M186.625 37.875C186.625 34.4232 183.827 31.625 180.375 31.625C176.923 31.625 174.125 34.4232 174.125 37.875V56.625C174.125 60.0769 176.923 62.875 180.375 62.875C183.827 62.875 186.625 60.0769 186.625 56.625V37.875Z" fill="white"/>
<path d="M186.625 56.625C186.625 58.2825 185.967 59.8722 184.794 61.0444C183.622 62.2166 182.032 62.875 180.375 62.875C178.718 62.875 177.128 62.2166 175.956 61.0444C174.783 59.8722 174.125 58.2825 174.125 56.625V37.875C174.13 36.2189 174.79 34.6321 175.961 33.461C177.132 32.29 178.719 31.6299 180.375 31.625V50.375C180.38 52.0309 181.04 53.6178 182.211 54.7891C183.382 55.96 184.969 56.62 186.625 56.625Z" fill="#CFF09E"/>
<path d="M161.625 56.625C161.625 58.2825 160.967 59.8722 159.794 61.0444C158.622 62.2166 157.032 62.875 155.375 62.875C153.718 62.875 152.128 62.2166 150.956 61.0444C149.783 59.8722 149.125 58.2825 149.125 56.625V37.875C149.13 36.2189 149.79 34.6321 150.961 33.461C152.132 32.29 153.719 31.6299 155.375 31.625V50.375C155.38 52.0309 156.04 53.6178 157.211 54.7891C158.382 55.96 159.969 56.62 161.625 56.625Z" fill="#CFF09E"/>
<path d="M92.875 56.625C92.875 58.2825 92.2166 59.8722 91.0444 61.0444C89.8722 62.2166 88.2825 62.875 86.625 62.875C84.9675 62.875 83.3778 62.2166 82.2056 61.0444C81.0334 59.8722 80.375 58.2825 80.375 56.625V37.875C80.38 36.2189 81.04 34.6321 82.2109 33.461C83.3822 32.29 84.9691 31.6299 86.625 31.625V50.375C86.63 52.0309 87.29 53.6178 88.4609 54.7891C89.6322 55.96 91.2191 56.62 92.875 56.625Z" fill="#CFF09E"/>
<path d="M67.875 56.625C67.875 58.2825 67.2166 59.8722 66.0444 61.0444C64.8722 62.2166 63.2825 62.875 61.625 62.875C59.9675 62.875 58.3778 62.2166 57.2056 61.0444C56.0334 59.8722 55.375 58.2825 55.375 56.625V37.875C55.38 36.2189 56.04 34.6321 57.2109 33.461C58.3822 32.29 59.9691 31.6299 61.625 31.625V50.375C61.63 52.0309 62.29 53.6178 63.4609 54.7891C64.6322 55.96 66.2191 56.62 67.875 56.625Z" fill="#CFF09E"/>
<path d="M199.125 78.5H42.875V191H199.125V78.5Z" fill="white"/>
<path d="M199.125 169.125V191H42.875V78.5H105.375V125.375C105.371 131.619 106.708 137.791 109.296 143.474C111.883 149.156 115.662 154.217 120.375 158.312C123.55 149.598 129.614 142.234 137.558 137.447C145.502 132.659 154.847 130.737 164.035 132.002C173.224 133.266 181.702 137.639 188.058 144.394C194.414 151.148 198.265 159.877 198.969 169.125H199.125Z" fill="#DDDDDD"/>
<path d="M105.375 112.875C110.553 112.875 114.75 108.678 114.75 103.5C114.75 98.3222 110.553 94.125 105.375 94.125C100.197 94.125 96 98.3222 96 103.5C96 108.678 100.197 112.875 105.375 112.875Z" fill="#DDDDDD"/>
<path d="M139.75 112.875C144.928 112.875 149.125 108.678 149.125 103.5C149.125 98.3222 144.928 94.125 139.75 94.125C134.572 94.125 130.375 98.3222 130.375 103.5C130.375 108.678 134.572 112.875 139.75 112.875Z" fill="#DDDDDD"/>
<path d="M174.125 112.875C179.303 112.875 183.5 108.678 183.5 103.5C183.5 98.3222 179.303 94.125 174.125 94.125C168.947 94.125 164.75 98.3222 164.75 103.5C164.75 108.678 168.947 112.875 174.125 112.875Z" fill="#DDDDDD"/>
<path d="M105.375 144.125C110.553 144.125 114.75 139.928 114.75 134.75C114.75 129.572 110.553 125.375 105.375 125.375C100.197 125.375 96 129.572 96 134.75C96 139.928 100.197 144.125 105.375 144.125Z" fill="#DDDDDD"/>
<path d="M139.75 144.125C144.928 144.125 149.125 139.928 149.125 134.75C149.125 129.572 144.928 125.375 139.75 125.375C134.572 125.375 130.375 129.572 130.375 134.75C130.375 139.928 134.572 144.125 139.75 144.125Z" fill="#DDDDDD"/>
<path d="M174.75 144.125C179.928 144.125 184.125 139.928 184.125 134.75C184.125 129.572 179.928 125.375 174.75 125.375C169.572 125.375 165.375 129.572 165.375 134.75C165.375 139.928 169.572 144.125 174.75 144.125Z" fill="#DDDDDD"/>
<path d="M139.75 174.125C144.928 174.125 149.125 169.928 149.125 164.75C149.125 159.572 144.928 155.375 139.75 155.375C134.572 155.375 130.375 159.572 130.375 164.75C130.375 169.928 134.572 174.125 139.75 174.125Z" fill="#DDDDDD"/>
<path d="M174.75 174.125C179.928 174.125 184.125 169.928 184.125 164.75C184.125 159.572 179.928 155.375 174.75 155.375C169.572 155.375 165.375 159.572 165.375 164.75C165.375 169.928 169.572 174.125 174.75 174.125Z" fill="#DDDDDD"/>
<path d="M71 175.375C76.1778 175.375 80.375 171.178 80.375 166C80.375 160.822 76.1778 156.625 71 156.625C65.8222 156.625 61.625 160.822 61.625 166C61.625 171.178 65.8222 175.375 71 175.375Z" fill="#DDDDDD"/>
<path d="M105.375 175.375C110.553 175.375 114.75 171.178 114.75 166C114.75 160.822 110.553 156.625 105.375 156.625C100.197 156.625 96 160.822 96 166C96 171.178 100.197 175.375 105.375 175.375Z" fill="#DDDDDD"/>
<path d="M77.25 91H36.625C34.9674 91 33.3777 91.6584 32.2056 92.8306C31.0335 94.0028 30.375 95.5925 30.375 97.25V137.875C30.375 139.533 31.0335 141.122 32.2056 142.294C33.3777 143.467 34.9674 144.125 36.625 144.125H55.375L74.125 156.625V144.125H77.25C78.9075 144.125 80.4972 143.467 81.6694 142.294C82.8416 141.122 83.5 139.533 83.5 137.875V97.25C83.5 95.5925 82.8416 94.0028 81.6694 92.8306C80.4972 91.6584 78.9075 91 77.25 91Z" fill="#79BD9A"/>
<path d="M105.375 91C102.903 91 100.486 91.7331 98.4303 93.1066C96.3747 94.48 94.7725 96.4325 93.8266 98.7166C92.8803 101.001 92.6328 103.514 93.1153 105.939C93.5975 108.363 94.7881 110.591 96.5363 112.339C98.2844 114.087 100.512 115.278 102.936 115.76C105.361 116.242 107.874 115.995 110.158 115.048C112.443 114.102 114.395 112.5 115.768 110.445C117.142 108.389 117.875 105.972 117.875 103.5C117.875 100.185 116.558 97.0053 114.214 94.6613C111.87 92.3169 108.69 91 105.375 91ZM105.375 109.75C104.139 109.75 102.931 109.383 101.903 108.697C100.875 108.01 100.074 107.034 99.6006 105.892C99.1278 104.75 99.0041 103.493 99.245 102.281C99.4863 101.068 100.082 99.9547 100.956 99.0806C101.83 98.2066 102.943 97.6113 104.156 97.37C105.368 97.1291 106.625 97.2528 107.767 97.7256C108.909 98.1988 109.885 99 110.572 100.028C111.258 101.056 111.625 102.264 111.625 103.5C111.625 105.158 110.967 106.747 109.794 107.919C108.622 109.092 107.033 109.75 105.375 109.75Z" fill="#3B8686"/>
<path d="M139.75 116C142.222 116 144.639 115.267 146.695 113.893C148.75 112.52 150.352 110.568 151.298 108.283C152.245 105.999 152.492 103.486 152.01 101.061C151.528 98.6366 150.337 96.4094 148.589 94.6613C146.841 92.9131 144.613 91.7225 142.189 91.2403C139.764 90.7578 137.251 91.0053 134.967 91.9516C132.682 92.8975 130.73 94.4997 129.357 96.5553C127.983 98.6109 127.25 101.028 127.25 103.5C127.25 106.815 128.567 109.995 130.911 112.339C133.255 114.683 136.435 116 139.75 116ZM139.75 97.25C140.986 97.25 142.194 97.6166 143.222 98.3034C144.25 98.99 145.051 99.9663 145.524 101.108C145.997 102.25 146.121 103.507 145.88 104.719C145.639 105.932 145.043 107.045 144.169 107.919C143.295 108.793 142.182 109.389 140.969 109.63C139.757 109.871 138.5 109.747 137.358 109.274C136.216 108.801 135.24 108 134.553 106.972C133.867 105.944 133.5 104.736 133.5 103.5C133.5 101.843 134.158 100.253 135.331 99.0806C136.503 97.9084 138.093 97.25 139.75 97.25Z" fill="#3B8686"/>
<path d="M174.125 116C176.597 116 179.014 115.267 181.07 113.893C183.125 112.52 184.727 110.568 185.673 108.283C186.62 105.999 186.867 103.486 186.385 101.061C185.903 98.6366 184.712 96.4094 182.964 94.6613C181.216 92.9131 178.988 91.7225 176.564 91.2403C174.139 90.7578 171.626 91.0053 169.342 91.9516C167.057 92.8975 165.105 94.4997 163.732 96.5553C162.358 98.6109 161.625 101.028 161.625 103.5C161.625 106.815 162.942 109.995 165.286 112.339C167.63 114.683 170.81 116 174.125 116ZM174.125 97.25C175.361 97.25 176.569 97.6166 177.597 98.3034C178.625 98.99 179.426 99.9663 179.899 101.108C180.372 102.25 180.496 103.507 180.255 104.719C180.014 105.932 179.418 107.045 178.544 107.919C177.67 108.793 176.557 109.389 175.344 109.63C174.132 109.871 172.875 109.747 171.733 109.274C170.591 108.801 169.615 108 168.928 106.972C168.242 105.944 167.875 104.736 167.875 103.5C167.875 101.843 168.533 100.253 169.706 99.0806C170.878 97.9084 172.468 97.25 174.125 97.25Z" fill="#3B8686"/>
<path d="M105.375 122.25C102.903 122.25 100.486 122.983 98.4303 124.357C96.3747 125.73 94.7725 127.682 93.8266 129.967C92.8803 132.251 92.6328 134.764 93.1153 137.189C93.5975 139.613 94.7881 141.841 96.5363 143.589C98.2844 145.337 100.512 146.528 102.936 147.01C105.361 147.492 107.874 147.245 110.158 146.298C112.443 145.352 114.395 143.75 115.768 141.695C117.142 139.639 117.875 137.222 117.875 134.75C117.875 131.435 116.558 128.255 114.214 125.911C111.87 123.567 108.69 122.25 105.375 122.25ZM105.375 141C104.139 141 102.931 140.633 101.903 139.947C100.875 139.26 100.074 138.284 99.6006 137.142C99.1278 136 99.0041 134.743 99.245 133.531C99.4863 132.318 100.082 131.205 100.956 130.331C101.83 129.457 102.943 128.861 104.156 128.62C105.368 128.379 106.625 128.503 107.767 128.976C108.909 129.449 109.885 130.25 110.572 131.278C111.258 132.306 111.625 133.514 111.625 134.75C111.625 136.408 110.967 137.997 109.794 139.169C108.622 140.342 107.033 141 105.375 141Z" fill="#3B8686"/>
<path d="M105.375 153.5C102.903 153.5 100.486 154.233 98.4303 155.607C96.3747 156.98 94.7725 158.932 93.8266 161.217C92.8803 163.501 92.6328 166.014 93.1153 168.439C93.5975 170.863 94.7881 173.091 96.5363 174.839C98.2844 176.587 100.512 177.778 102.936 178.26C105.361 178.742 107.874 178.495 110.158 177.548C112.443 176.602 114.395 175 115.768 172.945C117.142 170.889 117.875 168.472 117.875 166C117.875 162.685 116.558 159.505 114.214 157.161C111.87 154.817 108.69 153.5 105.375 153.5ZM105.375 172.25C104.139 172.25 102.931 171.883 101.903 171.197C100.875 170.51 100.074 169.534 99.6006 168.392C99.1278 167.25 99.0041 165.993 99.245 164.781C99.4863 163.568 100.082 162.455 100.956 161.581C101.83 160.707 102.943 160.111 104.156 159.87C105.368 159.629 106.625 159.753 107.767 160.226C108.909 160.699 109.885 161.5 110.572 162.528C111.258 163.556 111.625 164.764 111.625 166C111.625 167.658 110.967 169.247 109.794 170.419C108.622 171.592 107.033 172.25 105.375 172.25Z" fill="#3B8686"/>
<path d="M168.25 99H208.879C210.537 99 212.127 99.6585 213.299 100.831C214.471 102.003 215.13 103.593 215.13 105.25V145.879C215.13 147.536 214.471 149.126 213.299 150.298C212.127 151.471 210.537 152.129 208.879 152.129H190.128L171.376 164.63V152.129H168.25C166.593 152.129 165.003 151.471 163.831 150.298C162.658 149.126 162 147.536 162 145.879V105.25C162 103.593 162.658 102.003 163.831 100.831C165.003 99.6585 166.593 99 168.25 99Z" fill="#A5A5A5"/>
<g clip-path="url(#clip0_110_4)">
<path d="M74.2645 128.769V131.499H70.1692V128.769H70.1822H74.2645Z" fill="#B3674A"/>
<path d="M65.9241 119.193C65.9248 119.201 65.9256 119.21 65.9264 119.218C65.9256 119.21 65.9248 119.201 65.9241 119.193Z" fill="#FFBF4E"/>
<path d="M65.8361 118.084C65.838 118.112 65.84 118.14 65.8419 118.169C65.84 118.141 65.838 118.112 65.8361 118.084Z" fill="#FFBF4E"/>
<path d="M65.7703 116.94C65.7718 116.975 65.7734 117.01 65.7751 117.045C65.7735 117.01 65.7719 116.975 65.7703 116.94Z" fill="#FFBF4E"/>
<path d="M66.0676 120.724L63.7763 119.213L61.7054 120.578L59.6351 119.213L57.5649 120.578L55.494 119.213L53.4238 120.578L51.3529 119.213L48.8506 120.863C48.8543 120.831 48.8578 120.798 48.8615 120.767C48.2795 125.841 47.4045 128.769 49.4813 128.769H49.8164H54.52H65.4656C67.548 128.769 66.6625 125.821 66.0805 120.723L66.0676 120.724Z" fill="#FFBF4E"/>
<path d="M74.1086 124.905C74.0071 120.578 73.5205 113.783 68.9808 106.473C68.6157 105.885 68.0286 105.451 67.3557 105.288C65.0348 104.725 62.4774 104.411 59.9929 104.286C57.5085 104.411 54.951 104.725 52.6301 105.288C51.9571 105.451 51.3701 105.885 51.005 106.473C46.4662 113.783 45.9855 120.576 45.8875 124.903L49.2016 113.353C49.2397 114.481 49.231 115.556 49.1919 116.578C49.1923 116.566 49.193 116.554 49.1934 116.542H49.1941L51.353 115.118L53.4239 116.483L55.4941 115.118L57.565 116.483L59.6352 115.118L61.7054 116.483L63.7763 115.118L65.7489 116.419C65.7493 116.433 65.7501 116.447 65.7506 116.461C65.7153 115.475 65.7088 114.438 65.7455 113.353L70.1821 128.769H70.5042H74.2644L74.2767 128.767C74.1287 127.95 74.1489 126.621 74.1086 124.905Z" fill="#FFBF4E"/>
<path d="M66.0963 120.578L64.0261 119.213L61.9559 120.578L59.885 119.213L57.8147 120.578L55.7438 119.213L53.2416 120.863C53.3924 119.561 53.5255 118.116 53.5842 116.542H53.5849L55.7438 115.118L57.8148 116.483L59.885 115.118L61.9559 116.483L64.0261 115.118L66.0963 116.483V120.578Z" fill="#B3674A"/>
<path d="M65.6642 130.134V128.769H65.4656H54.9419H54.7433V130.134C54.7433 130.888 55.3542 131.499 56.1084 131.499H64.2991C65.0534 131.499 65.6642 130.888 65.6642 130.134Z" fill="#B3674A"/>
<path d="M60.5846 101.467H57.9295C57.3418 101.467 56.8197 101.843 56.634 102.4L55.9391 104.485H62.575L61.8801 102.4C61.6945 101.843 61.1723 101.467 60.5846 101.467Z" fill="#B3674A"/>
<path d="M60.2038 128.086C59.8271 128.086 59.5212 128.392 59.5212 128.769C59.5212 129.146 59.8271 129.452 60.2038 129.452C60.5806 129.452 60.8864 129.146 60.8864 128.769C60.8864 128.392 60.5806 128.086 60.2038 128.086Z" fill="black"/>
<path d="M74.8125 126.041C74.7783 123.905 74.7315 120.98 74.0615 117.552C73.2688 113.494 71.7544 109.646 69.5607 106.113C69.0998 105.371 68.3546 104.828 67.5166 104.625C66.1611 104.296 64.6713 104.038 63.0846 103.855L62.5277 102.185C62.2488 101.347 61.4679 100.784 60.5846 100.784H54.3624C53.4791 100.784 52.6981 101.347 52.4194 102.185L51.8624 103.855C50.2757 104.038 48.786 104.296 47.4307 104.625C46.5924 104.828 45.8473 105.371 45.3864 106.113C43.1935 109.645 41.681 113.492 40.8907 117.547C39.8751 122.76 40.3119 126.598 40.008 128.67C40.0069 128.678 40 128.719 40 128.769V131.499C40 131.876 40.3057 132.182 40.6826 132.182H44.778C45.1549 132.182 45.4605 131.876 45.4605 131.499V128.865L48.382 118.684C47.8864 124.772 46.5426 128.346 48.6003 129.278V130.134C48.6003 131.263 49.5189 132.182 50.648 132.182H64.2992C65.4283 132.182 66.3469 131.263 66.3469 130.134V129.278C67.9773 128.54 67.4437 125.831 67.0971 123.286C66.9897 122.497 66.8679 121.602 66.7588 120.646C66.6808 119.961 66.6161 119.304 66.5645 118.667L69.4867 128.82V131.499C69.4867 131.876 69.7924 132.182 70.1693 132.182H74.2647C74.6416 132.182 74.9473 131.876 74.9473 131.499V128.901C75.0194 128.532 74.8632 129.208 74.8125 126.041ZM54.3624 102.149H60.5846C60.8792 102.149 61.1396 102.337 61.2326 102.616L61.5968 103.709C60.2496 103.598 58.8674 103.541 57.4735 103.541C56.0796 103.541 54.6975 103.598 53.3502 103.709L53.7145 102.616C53.8075 102.337 54.0678 102.149 54.3624 102.149ZM44.0954 130.817H41.3651V129.452H44.0954V130.817ZM49.8604 116.92L51.353 115.935L53.0482 117.053C53.2762 117.203 53.5717 117.203 53.7996 117.053L55.4942 115.935L57.1893 117.053C57.4173 117.203 57.7128 117.203 57.9408 117.053L59.6352 115.935L61.3297 117.053C61.5576 117.203 61.8531 117.203 62.0811 117.053L63.7763 115.935L65.0811 116.796C65.1163 117.626 65.1741 118.479 65.2559 119.371L64.1523 118.643C63.9244 118.493 63.6288 118.493 63.4008 118.643L61.7056 119.761L60.0111 118.643C59.7831 118.493 59.4875 118.493 59.2596 118.643L57.565 119.761L55.8699 118.643C55.6418 118.493 55.3463 118.493 55.1184 118.643L53.4239 119.761L51.7287 118.643C51.5008 118.493 51.2052 118.493 50.9774 118.643L49.6797 119.499C49.7635 118.604 49.8234 117.749 49.8604 116.92ZM64.2991 130.817H50.6479C50.2716 130.817 49.9653 130.51 49.9653 130.134V129.451H57.4735C57.8504 129.451 58.1561 129.146 58.1561 128.769C58.1561 128.392 57.8504 128.086 57.4735 128.086H49.4814C48.7932 128.086 48.6247 127.713 49.2031 123.467C49.294 122.8 49.3954 122.054 49.4912 121.258L51.353 120.031L53.0482 121.148C53.2762 121.298 53.5717 121.298 53.7996 121.148L55.4942 120.031L57.1893 121.148C57.4173 121.298 57.7128 121.298 57.9408 121.148L59.6352 120.031L61.3297 121.148C61.5576 121.298 61.8531 121.298 62.0811 121.148L63.7763 120.031L65.4407 121.128C65.541 121.975 65.6483 122.764 65.7445 123.47C66.3212 127.706 66.1544 128.086 65.4657 128.086H62.9341C62.5572 128.086 62.2515 128.392 62.2515 128.769C62.2515 129.146 62.5572 129.451 62.9341 129.451H64.9818V130.134C64.9817 130.51 64.6755 130.817 64.2991 130.817ZM66.4015 113.165C66.3087 112.842 65.994 112.634 65.6617 112.676C65.3285 112.717 65.0747 112.995 65.0633 113.33C65.0433 113.923 65.0367 114.527 65.0408 115.134L64.152 114.548C63.9242 114.398 63.6286 114.398 63.4006 114.548L61.7054 115.665L60.0108 114.548C59.7829 114.398 59.4873 114.398 59.2594 114.548L57.5649 115.665L55.8697 114.548C55.6417 114.398 55.3462 114.398 55.1183 114.548L53.4237 115.665L51.7286 114.548C51.5006 114.398 51.205 114.398 50.9771 114.548L49.9047 115.255C49.9108 114.607 49.9049 113.963 49.8835 113.33C49.8722 112.995 49.6183 112.717 49.285 112.676C48.952 112.635 48.6379 112.842 48.5453 113.165L44.2636 128.086H41.4479C41.7062 124.463 40.7669 116.14 46.5461 106.833C46.8197 106.392 47.2592 106.071 47.7523 105.952C49.1736 105.607 50.7519 105.342 52.4434 105.164C54.0703 104.993 55.7626 104.906 57.4735 104.906C59.1844 104.906 60.8767 104.993 62.5035 105.164C64.1951 105.342 65.7734 105.607 67.1948 105.952C67.6876 106.071 68.1272 106.392 68.4009 106.833C73.2652 114.666 73.3793 121.8 73.4476 126.063C73.4601 126.847 73.4711 127.522 73.5116 128.086H70.696L66.4015 113.165ZM73.582 130.817H70.8517V129.452H73.582V130.817Z" fill="black"/>
</g>
<g clip-path="url(#clip1_110_4)">
<path d="M193.507 109.337C193.508 109.317 193.511 109.297 193.512 109.277C193.59 108.304 192.618 107.562 191.734 107.871C191.794 107.892 191.854 107.917 191.914 107.948C192.691 108.347 193.191 108.886 193.507 109.337Z" fill="#FF8095"/>
<path d="M191.571 107.941C191.625 107.913 191.679 107.891 191.734 107.871C190.842 107.568 189.888 108.341 189.971 109.327C189.971 109.327 189.971 109.327 189.971 109.328C190.289 108.876 190.792 108.338 191.571 107.941Z" fill="#FF8095"/>
<path d="M198.265 136.761L198.362 136.786C201.227 137.502 204.642 136.34 206.28 133.883C202.74 131.228 200.185 126.99 199.021 122.72L197.799 118.239C197.162 115.905 194.633 114.286 192.214 114.286C192.99 112.69 193.364 111.064 193.507 109.337C193.191 108.886 192.691 108.347 191.914 107.948C191.854 107.917 191.794 107.892 191.734 107.871C191.679 107.891 191.625 107.913 191.571 107.941C190.792 108.338 190.289 108.876 189.971 109.328C190.119 111.032 190.428 112.578 191.258 114.286C188.84 114.286 186.31 115.905 185.673 118.239L184.451 122.72C183.484 126.269 181.556 129.795 178.9 132.41C177.878 133.416 178.077 135.127 179.305 135.868C181.019 136.901 183.188 137.266 185.11 136.786L185.207 136.761C185.205 136.765 185.202 136.769 185.2 136.773C184.827 137.384 185.156 138.181 185.852 138.343C187.792 138.797 189.76 139.086 191.736 139.211C194.197 139.055 196.646 138.646 199.042 137.98C198.776 137.58 198.516 137.174 198.265 136.761Z" fill="#FF8095"/>
<path d="M194.945 135.385C194.568 135.385 194.262 135.691 194.262 136.068C194.262 136.445 194.568 136.751 194.945 136.751C195.322 136.751 195.628 136.445 195.628 136.068C195.628 135.691 195.322 135.385 194.945 135.385Z" fill="black"/>
<path d="M180.508 118.059L179.286 122.541C178.079 126.965 175.524 130.9 172.276 133.337C171.986 133.554 171.916 133.96 172.117 134.262C173.628 136.527 176.515 137.819 179.318 137.664C179.229 137.835 179.216 138.036 179.283 138.218C179.36 138.423 179.53 138.579 179.741 138.638C182.927 139.523 186.205 139.966 189.483 139.966C192.761 139.966 196.038 139.523 199.225 138.638C199.436 138.579 199.606 138.423 199.682 138.218C199.75 138.036 199.736 137.835 199.647 137.664C202.426 137.817 205.325 136.546 206.848 134.262C207.049 133.96 206.98 133.554 206.69 133.337C203.441 130.9 200.886 126.965 199.68 122.541L198.458 118.059C197.831 115.763 195.612 114.067 193.225 113.685C193.752 112.361 194.063 110.954 194.193 109.332C194.251 108.596 193.901 107.881 193.278 107.464C193.156 107.382 193.028 107.315 192.897 107.262V105.683C192.897 105.306 192.591 105 192.214 105C191.837 105 191.531 105.306 191.531 105.683V107.219C190.982 107.405 190.102 108 189.483 108.836C188.857 107.991 187.973 107.4 187.434 107.221V105.683C187.434 105.306 187.129 105 186.752 105C186.374 105 186.069 105.306 186.069 105.683V107.273C185.946 107.325 185.827 107.389 185.712 107.465C185.076 107.891 184.72 108.626 184.784 109.386C184.815 109.748 184.855 110.108 184.901 110.458C185.048 111.572 185.33 112.653 185.741 113.685C183.353 114.067 181.134 115.764 180.508 118.059ZM173.634 134.007C176.863 131.375 179.385 127.366 180.603 122.9L181.826 118.419C182.333 116.559 184.352 115.088 186.492 114.977C186.766 115.216 187.069 115.422 187.392 115.59C187.288 115.807 187.177 116.021 187.062 116.242C186.613 117.106 186.104 118.084 185.919 119.538C185.169 125.439 183.163 131.33 180.263 136.163C177.862 136.689 175.152 135.789 173.634 134.007ZM181.009 137.56C184.242 132.424 186.466 126.067 187.274 119.711C187.428 118.498 187.839 117.709 188.274 116.872C188.415 116.601 188.559 116.324 188.695 116.03C189.215 116.121 189.751 116.121 190.271 116.03C190.408 116.327 190.553 116.606 190.695 116.879C191.128 117.71 191.537 118.494 191.692 119.711C192.498 126.05 194.715 132.411 197.957 137.56C192.394 138.947 186.572 138.947 181.009 137.56ZM197.14 118.419L198.362 122.9C199.58 127.366 202.102 131.375 205.331 134.007C203.813 135.789 201.101 136.69 198.703 136.163C195.803 131.331 193.797 125.44 193.046 119.538C192.861 118.08 192.354 117.106 191.906 116.247C191.791 116.026 191.679 115.811 191.574 115.592C191.897 115.425 192.199 115.22 192.476 114.976C194.616 115.088 196.633 116.56 197.14 118.419ZM188.872 110.495C188.874 110.499 188.877 110.504 188.88 110.508C189.137 110.997 189.844 110.993 190.093 110.495C190.187 110.357 190.558 109.224 191.881 108.549C192.169 108.402 192.423 108.535 192.519 108.599C192.734 108.743 192.851 108.976 192.831 109.223C192.69 110.997 192.314 112.48 191.651 113.879C191.307 114.201 190.909 114.437 190.462 114.581C189.83 114.785 189.134 114.785 188.503 114.581C188.056 114.436 187.657 114.201 187.314 113.881C186.784 112.761 186.419 111.519 186.255 110.279C186.211 109.95 186.174 109.61 186.145 109.27C186.118 108.955 186.296 108.718 186.471 108.6C186.587 108.523 186.821 108.414 187.095 108.555C188.411 109.231 188.781 110.36 188.872 110.495Z" fill="black"/>
<path d="M192.182 135.756C191.288 135.831 190.379 135.869 189.483 135.869C187.761 135.869 186.03 135.73 184.337 135.456C183.965 135.397 183.614 135.649 183.554 136.021C183.494 136.393 183.747 136.744 184.119 136.804C185.884 137.09 187.688 137.234 189.483 137.234C190.417 137.234 191.364 137.195 192.295 137.117C192.671 137.086 192.951 136.756 192.919 136.38C192.888 136.004 192.557 135.726 192.182 135.756Z" fill="black"/>
</g>
<rect x="21" y="16" width="200" height="200" stroke="black"/>
</g>
</g>
<defs>
<clipPath id="clip0_110_4">
<rect width="34.9659" height="34.9659" fill="white" transform="translate(40 99)"/>
</clipPath>
<clipPath id="clip1_110_4">
<rect width="34.9658" height="34.9658" fill="white" transform="translate(172 105)"/>
</clipPath>
</defs>
</svg>
