<svg width="205" height="206" viewBox="0 0 205 206" fill="none" xmlns="http://www.w3.org/2000/svg">
<circle cx="102.333" cy="103" r="99.8333" fill="white" stroke="#323232" stroke-width="5"/>
<rect x="90.3335" y="3" width="13.3333" height="153.333" fill="#323232"/>
<rect width="6.66667" height="36" transform="matrix(1 0 0 -1 93 203)" fill="#323232"/>
<path d="M110.333 3H119.667C121.876 3 123.667 4.79086 123.667 7V156.333H110.333V3Z" fill="#323232"/>
<rect width="6.66667" height="36" transform="matrix(1 0 0 -1 107.667 203)" fill="#323232"/>
<path d="M13 143H90.3333V156.333H19C15.6863 156.333 13 153.647 13 150.333V143Z" fill="#323232"/>
<path d="M27.6665 167H95.6665V173.667H32.6665C29.9051 173.667 27.6665 171.428 27.6665 168.667V167Z" fill="#323232"/>
<path d="M107.667 167H175.667V168.667C175.667 171.428 173.428 173.667 170.667 173.667H107.667V167Z" fill="#323232"/>
<path d="M111.667 143H191.667V149.333C191.667 153.199 188.532 156.333 184.667 156.333H111.667V143Z" fill="#323232"/>
<circle cx="75.6667" cy="82.9999" r="6.66667" fill="#323232"/>
<circle cx="138.334" cy="82.9999" r="6.66667" fill="#323232"/>
<circle cx="151" cy="181" r="3.33333" fill="#323232"/>
<circle cx="53.6668" cy="181" r="3.33333" fill="#323232"/>
</svg>
