<svg xmlns="http://www.w3.org/2000/svg" version="1.1" xmlns:xlink="http://www.w3.org/1999/xlink" xmlns:svgjs="http://svgjs.com/svgjs" width="512" height="512" x="0" y="0" viewBox="0 0 597.33781 597" style="enable-background:new 0 0 512 512" xml:space="preserve" class=""><g><path xmlns="http://www.w3.org/2000/svg" d="m307.371094 337.867188c-18.109375 3.082031-36.613282 3.082031-54.722656 0-23.960938 56.527343-13.320313 121.792968 27.359374 167.773437 40.679688-45.980469 51.324219-111.246094 27.363282-167.773437zm0 0" fill="#ffffff" data-original="#000000" class=""></path><path xmlns="http://www.w3.org/2000/svg" d="m417.722656 241.183594c-44.925781-5.1875-89.925781 9.128906-123.59375 39.328125 9.511719 10.566406 17.742188 22.222656 24.519532 34.714843 41.59375-10.4375 77.28125-37.105468 99.074218-74.042968zm0 0" fill="#ffffff" data-original="#000000" class=""></path><path xmlns="http://www.w3.org/2000/svg" d="m262.289062 319.175781c11.769532 1.386719 23.664063 1.386719 35.4375 0-5.121093-8.695312-11.054687-16.882812-17.71875-24.464843-6.660156 7.582031-12.59375 15.769531-17.71875 24.464843zm0 0" fill="#ffffff" data-original="#000000" class=""></path><path xmlns="http://www.w3.org/2000/svg" d="m160.011719 220.183594c44.34375.019531 87.101562 16.488281 119.996093 46.21875 39.796876-36.445313 94.101563-52.625 147.359376-43.910156 28.324218-66.964844 7.933593-144.609376-49.644532-189.015626-57.574218-44.410156-137.851562-44.410156-195.425781 0-57.578125 44.40625-77.96875 122.050782-49.644531 189.015626 9.050781-1.46875 18.195312-2.242188 27.359375-2.308594zm0 0" fill="#ffffff" data-original="#000000" class=""></path><path xmlns="http://www.w3.org/2000/svg" d="m160.011719 560.167969c39.050781-.007813 76.734375-14.378907 105.878906-40.367188-45.601563-50.652343-58.40625-122.847656-33-186.09375-47.738281-13.019531-88.039063-45.050781-111.503906-88.613281-78.445313 19.472656-130.019531 94.414062-120.1875 174.640625 9.839843 80.222656 77.988281 140.488281 158.8125 140.433594zm0 0" fill="#ffffff" data-original="#000000" class=""></path><path xmlns="http://www.w3.org/2000/svg" d="m327.140625 333.707031c25.402344 63.246094 12.601563 135.441407-33.003906 186.09375 49.671875 44.046875 121.398437 52.796875 180.203125 21.992188 58.804687-30.804688 92.445312-94.757813 84.515625-160.664063-7.929688-65.910156-55.78125-120.058594-120.210938-136.035156-23.464843 43.5625-63.773437 75.59375-111.503906 88.613281zm0 0" fill="#ffffff" data-original="#000000" class=""></path><path xmlns="http://www.w3.org/2000/svg" d="m142.292969 241.183594c21.796875 36.9375 57.476562 63.605468 99.078125 74.042968 6.777344-12.492187 15.003906-24.148437 24.519531-34.714843-33.667969-30.199219-78.667969-44.515625-123.597656-39.328125zm0 0" fill="#ffffff" data-original="#000000" class=""></path></g></svg>
