<?xml version="1.0" encoding="iso-8859-1"?>
<!-- Generator: Adobe Illustrator 19.0.0, SVG Export Plug-In . SVG Version: 6.00 Build 0)  -->
<svg version="1.1" id="Capa_1" xmlns="http://www.w3.org/2000/svg" xmlns:xlink="http://www.w3.org/1999/xlink" x="0px" y="0px"
	 viewBox="0 0 512 512" style="enable-background:new 0 0 512 512;" xml:space="preserve">
<g>
	<path style="fill:#FF8095;" d="M386,396c3.36,0,6.7,0.13,10,0.38V327H162v24.146c0,24.783,20.106,44.87,44.889,44.854
		c0.041,0,0.078,0,0.111,0c49,0,57.98,48.67,71.52,106h0.96C293.02,444.67,324.53,396,386,396z"/>
	<path style="fill:#FF8095;" d="M322.318,235.258C326.877,235.752,331.466,236,336,236c44.18,0,80-35.82,80-80
		c0-23.711-10.324-45.005-26.713-59.655C386.885,96.128,384.458,96,382,96L322.318,235.258z"/>
	<path style="fill:#FF8095;" d="M236,216L181.729,89.368C160.196,103.703,146,128.187,146,156c0,36.437,24.374,67.166,57.698,76.825
		C216.139,229.787,227.585,224.415,236,216z"/>
</g>
<path d="M256,356c-5.52,0-10,4.48-10,10s4.48,10,10,10c5.52,0,10-4.48,10-10S261.52,356,256,356z"/>
<path d="M176,246c15.64,0,44.008-2.692,63.912-20h32.176c19.905,17.308,48.273,20,63.912,20c49.626,0,90-40.374,90-90
	c0-46.246-35.063-84.451-80-89.441V10c0-5.522-4.478-10-10-10s-10,4.478-10,10v63.947L269.406,206h-26.812L186,73.947V10
	c0-5.522-4.477-10-10-10s-10,4.478-10,10v56.559c-44.937,4.99-80,43.195-80,89.441C86,205.626,126.374,246,176,246z M342.467,86.296
	C378.047,89.569,406,119.581,406,156c0,38.598-31.402,70-70,70c-19.613,0-36.637-4.609-47.916-12.811L342.467,86.296z
	 M169.533,86.296l54.383,126.894C212.637,221.391,195.613,226,176,226c-38.598,0-70-31.402-70-70
	C106,119.581,133.954,89.569,169.533,86.296z"/>
<path d="M116,317c-5.523,0-10,4.478-10,10v69.38c0,2.783,1.16,5.441,3.201,7.333c2.042,1.893,4.78,2.846,7.554,2.639
	c3.077-0.233,6.188-0.352,9.245-0.352c60.808,0,86.197,53.455,96.788,98.299c1.066,4.513,5.095,7.701,9.732,7.701h46.96
	c4.638,0,8.666-3.188,9.732-7.701C299.803,459.455,325.191,406,386,406c3.058,0,6.168,0.118,9.244,0.352
	c2.777,0.208,5.513-0.745,7.555-2.639c2.041-1.892,3.201-4.55,3.201-7.333V327c0-5.522-4.478-10-10-10H116z M271.685,492h-31.369
	C224.087,431.289,188.088,386,126,386v-10h90c5.523,0,10-4.478,10-10s-4.477-10-10-10h-90v-19h260v19h-90c-5.522,0-10,4.478-10,10
	s4.478,10,10,10h90v10C323.909,386,287.912,431.295,271.685,492z"/>
<g>
</g>
<g>
</g>
<g>
</g>
<g>
</g>
<g>
</g>
<g>
</g>
<g>
</g>
<g>
</g>
<g>
</g>
<g>
</g>
<g>
</g>
<g>
</g>
<g>
</g>
<g>
</g>
<g>
</g>
</svg>
