<?xml version="1.0" encoding="iso-8859-1"?>
<!-- Generator: Adobe Illustrator 19.0.0, SVG Export Plug-In . SVG Version: 6.00 Build 0)  -->
<svg version="1.1" id="Capa_1" xmlns="http://www.w3.org/2000/svg" xmlns:xlink="http://www.w3.org/1999/xlink" x="0px" y="0px"
	 viewBox="0 0 511.999 511.999" style="enable-background:new 0 0 511.999 511.999;" xml:space="preserve">
<path style="fill:#7EC2DB;" d="M454.689,247.473c-11.81-19.27-18.94-41.05-18.94-63.58V76.004l-3-1l-57-19v119.999
	c0,56.45-38.989,103.791-91.501,116.585c-9.136,2.226-18.677,3.414-28.498,3.414c-33.14,0-63.14-13.43-84.849-35.15
	c-21.72-21.71-35.15-51.71-35.15-84.85V75.004l-3,1v107.889c0,22.53-7.13,44.31-18.94,63.58c-11.82,19.27-28.32,36.03-47.06,48.53
	c22.68,68.04,83.58,97.789,86,99.999h262.998c2.42-2.21,63.32-31.96,85.999-99.999C483.008,283.503,466.508,266.743,454.689,247.473
	z"/>
<rect x="95.75" y="395.997" style="fill:#FFFFFF;" width="319.998" height="60"/>
<path d="M150,306.003c5.52,0,10-4.48,10-10c0-5.52-4.48-10-10-10s-10,4.48-10,10C140,301.523,144.48,306.003,150,306.003z"/>
<path d="M86.001,401.57v54.432c0,5.523,4.478,10,10,10h319.998c5.522,0,10-4.477,10-10V401.57
	c53.159-32.392,75.84-73.463,85.486-102.405c1.426-4.277-0.188-8.979-3.938-11.481c-17.951-11.974-33.195-27.687-44.082-45.436
	c-11.427-18.644-17.467-38.822-17.467-58.354V76.004c0-4.304-2.754-8.125-6.838-9.487l-60-20c-0.021-0.007-0.041-0.01-0.062-0.017
	c-6.522-2.132-13.053,2.797-13.097,9.437c0,0.023-0.003,0.045-0.003,0.067v119.999c0,60.654-49.346,109.999-109.999,109.999
	C195.221,286.003,146,236.819,146,176.004V56.004c0-0.023-0.003-0.045-0.003-0.067c-0.045-6.698-6.634-11.551-13.097-9.437
	c-0.021,0.007-0.041,0.01-0.062,0.017l-60,20c-4.084,1.361-6.838,5.183-6.838,9.487v107.889c0,19.532-6.04,39.711-17.465,58.352
	c-10.889,17.752-26.133,33.465-44.084,45.439c-3.751,2.502-5.364,7.204-3.938,11.481C10.162,328.108,32.842,369.178,86.001,401.57z
	 M405.999,446.002H106.001v-40h299.998V446.002z M65.587,252.698c13.354-21.79,20.414-45.583,20.414-68.806V83.211l40-13.333
	v106.125c0,71.83,58.126,129.999,129.999,129.999c71.683,0,129.999-58.318,129.999-129.999V69.878l40,13.333v100.682
	c0,23.223,7.06,47.016,20.416,68.809c11.059,18.029,26.028,34.186,43.58,47.097c-9.968,25.52-31.214,59.034-76.475,85.96
	c-0.146,0.087-0.272,0.162-0.408,0.243H98.888c-0.136-0.081-0.262-0.156-0.408-0.243c-45.261-26.928-66.507-60.442-76.475-85.961
	C39.557,286.886,54.527,270.73,65.587,252.698z"/>
<path d="M178.553,327.319c23.805,12.223,50.585,18.684,77.447,18.684c45.347,0,88.017-17.704,120.151-49.85
	c3.904-3.906,3.903-10.238-0.002-14.142c-3.906-3.905-10.238-3.903-14.143,0.002c-28.357,28.367-66.005,43.99-106.007,43.99
	c-24.038,0-47.021-5.543-68.313-16.476c-4.909-2.521-10.941-0.585-13.463,4.328S173.64,324.796,178.553,327.319z"/>
<g>
</g>
<g>
</g>
<g>
</g>
<g>
</g>
<g>
</g>
<g>
</g>
<g>
</g>
<g>
</g>
<g>
</g>
<g>
</g>
<g>
</g>
<g>
</g>
<g>
</g>
<g>
</g>
<g>
</g>
</svg>
