<svg xmlns="http://www.w3.org/2000/svg" version="1.1" xmlns:xlink="http://www.w3.org/1999/xlink" xmlns:svgjs="http://svgjs.com/svgjs" width="512" height="512" x="0" y="0" viewBox="0 0 512 512" style="enable-background:new 0 0 512 512" xml:space="preserve" class=""><g>
<g xmlns="http://www.w3.org/2000/svg">
	<g>
		<path d="M386.062,0H271.136v356.886h160.406V45.48C431.541,20.403,411.139,0,386.062,0z M315.354,214.565    c0,8.357-6.776,15.133-15.133,15.133s-15.133-6.776-15.133-15.133v-41.98c0-8.357,6.776-15.133,15.133-15.133    s15.133,6.776,15.133,15.133V214.565z" fill="#ffffff" data-original="#000000" class=""></path>
	</g>
</g>
<g xmlns="http://www.w3.org/2000/svg">
	<g>
		<path d="M125.938,0c-25.077,0-45.479,20.403-45.479,45.48v311.406H240.87V0H125.938z M226.918,214.565    c0,8.357-6.775,15.133-15.133,15.133c-8.357,0-15.133-6.776-15.133-15.133v-41.98c0-8.357,6.776-15.133,15.133-15.133    c8.357,0,15.133,6.776,15.133,15.133V214.565z" fill="#ffffff" data-original="#000000" class=""></path>
	</g>
</g>
<g xmlns="http://www.w3.org/2000/svg">
	<g>
		<path d="M80.458,387.152v46.488c0,25.077,20.402,45.48,45.479,45.48h5.649v17.747c0,8.357,6.776,15.133,15.133,15.133    c8.357,0,15.133-6.775,15.133-15.133V479.12h188.301v17.747c0,8.357,6.776,15.133,15.133,15.133    c8.357,0,15.133-6.775,15.133-15.133V479.12h5.643c25.077,0,45.479-20.403,45.479-45.48v-46.488H80.458z M273.151,433.135h-34.301    c-8.357,0-15.133-6.776-15.133-15.133c0-8.357,6.775-15.133,15.133-15.133h34.301c8.357,0,15.133,6.776,15.133,15.133    C288.283,426.36,281.508,433.135,273.151,433.135z" fill="#ffffff" data-original="#000000" class=""></path>
	</g>
</g>
<g xmlns="http://www.w3.org/2000/svg">
</g>
<g xmlns="http://www.w3.org/2000/svg">
</g>
<g xmlns="http://www.w3.org/2000/svg">
</g>
<g xmlns="http://www.w3.org/2000/svg">
</g>
<g xmlns="http://www.w3.org/2000/svg">
</g>
<g xmlns="http://www.w3.org/2000/svg">
</g>
<g xmlns="http://www.w3.org/2000/svg">
</g>
<g xmlns="http://www.w3.org/2000/svg">
</g>
<g xmlns="http://www.w3.org/2000/svg">
</g>
<g xmlns="http://www.w3.org/2000/svg">
</g>
<g xmlns="http://www.w3.org/2000/svg">
</g>
<g xmlns="http://www.w3.org/2000/svg">
</g>
<g xmlns="http://www.w3.org/2000/svg">
</g>
<g xmlns="http://www.w3.org/2000/svg">
</g>
<g xmlns="http://www.w3.org/2000/svg">
</g>
</g></svg>
