<?xml version="1.0" encoding="iso-8859-1"?>
<!-- Generator: Adobe Illustrator 19.0.0, SVG Export Plug-In . SVG Version: 6.00 Build 0)  -->
<svg version="1.1" id="Capa_1" xmlns="http://www.w3.org/2000/svg" xmlns:xlink="http://www.w3.org/1999/xlink" x="0px" y="0px"
	 viewBox="0 0 512 512" style="enable-background:new 0 0 512 512;" xml:space="preserve">
<path style="fill:#FF8095;" d="M453.089,90.473c-11.33-26.45-40.11-47.01-77.34-60.73c-12.494-4.598-25.927-8.426-39.979-11.455
	l-85.02,0.005c-55.95,12.04-102.199,36.86-117.339,72.18l-30.946,96.496c-2.079,6.482,0.662,13.534,6.572,16.911l0,0
	c4.193,2.396,9.308,2.532,13.622,0.363l0,0c31.246-15.712,68.092,7.002,68.092,41.976v194.473
	c29.129,10.681,64.981,17.345,102.499,19.995c37.519-2.65,73.371-9.314,102.499-19.995V170.003l36,60l39-22.286l16.851-9.629
	l14.149-8.085L453.089,90.473z"/>
<g>
	<path style="fill:#FFFFFF;" d="M395.75,440.691v40c-77.48,28.41-202.519,28.41-279.998,0v-40
		C193.231,469.1,318.27,469.1,395.75,440.691z"/>
	<path style="fill:#FFFFFF;" d="M335.75,18.283v11.72c0,44.11-35.89,80-80,80s-80-35.89-80-80v-11.71c25.34-5.46,52.67-8.29,80-8.29
		S310.41,12.833,335.75,18.283z"/>
</g>
<path d="M256,140.002c-5.52,0-10,4.48-10,10s4.48,10,10,10c5.52,0,10-4.48,10-10S261.52,140.002,256,140.002z"/>
<path d="M436.96,238.684l70-40c4.578-2.616,6.339-8.338,4.022-13.075l-48.554-99.312C434.764,22.303,329.91,0.003,256,0.003
	c-27.818,0-56.162,2.936-81.977,8.487c-0.027,0.005-0.054,0.011-0.082,0.017c-0.015,0.003-0.03,0.006-0.045,0.009
	c-47.353,10.19-105.181,33.518-124.325,77.78L1.018,185.61c-2.316,4.737-0.556,10.458,4.022,13.075l70,40
	c4.722,2.697,10.736,1.127,13.536-3.538L106,206.105V480.69c0,4.195,2.619,7.944,6.557,9.389
	c38.549,14.134,89.49,21.918,143.443,21.918c53.952,0,104.894-7.784,143.441-21.919c3.939-1.444,6.558-5.193,6.558-9.389V206.105
	l17.425,29.042C426.221,239.812,432.235,241.385,436.96,238.684z M326,26.469v3.534c0,38.598-31.402,70-70,70s-70-31.402-70-70
	v-3.526c22.321-4.24,46.344-6.474,70-6.474C279.644,20.003,303.667,22.234,326,26.469z M126.001,473.596v-19.005
	c36.586,11.267,82.103,17.406,129.999,17.406s93.413-6.14,129.999-17.406v19.005C312.526,498.148,199.472,498.148,126.001,473.596z
	 M404.575,164.857c-2.313-3.854-6.91-5.691-11.244-4.492c-4.332,1.2-7.331,5.143-7.331,9.637v263.59
	c-73.472,24.551-186.529,24.551-259.998,0v-263.59c0-4.495-2.999-8.438-7.331-9.637c-4.331-1.197-8.931,0.638-11.244,4.492
	l-30.963,51.605l-53.36-30.491l44.542-91.106c0.073-0.149,0.142-0.3,0.208-0.453c8.514-19.863,29.183-37.214,58.941-50.234
	c5.418,49.348,38.786,91.967,86.462,108.605c5.233,1.827,10.924-0.952,12.736-6.146c1.82-5.214-0.932-10.917-6.146-12.736
	c-42.037-14.67-70.925-53.202-73.618-97.171c6.3-2.108,12.901-4.048,19.785-5.808c0.495,49.204,40.669,89.081,89.987,89.081
	s89.492-39.878,89.987-89.081c6.833,1.755,13.443,3.705,19.783,5.836c-2.704,43.958-31.588,82.477-73.616,97.143
	c-5.215,1.819-7.967,7.522-6.146,12.736c1.814,5.198,7.506,7.973,12.736,6.146c47.659-16.632,81.021-59.227,86.456-108.551
	c29.882,13.147,50.6,30.695,58.946,50.178c0.065,0.153,0.136,0.305,0.209,0.455l44.542,91.106l-53.36,30.491L404.575,164.857z"/>
<g>
</g>
<g>
</g>
<g>
</g>
<g>
</g>
<g>
</g>
<g>
</g>
<g>
</g>
<g>
</g>
<g>
</g>
<g>
</g>
<g>
</g>
<g>
</g>
<g>
</g>
<g>
</g>
<g>
</g>
</svg>
