<svg xmlns="http://www.w3.org/2000/svg" version="1.1" xmlns:xlink="http://www.w3.org/1999/xlink" xmlns:svgjs="http://svgjs.com/svgjs" width="512" height="512" x="0" y="0" viewBox="0 0 500 500" style="enable-background:new 0 0 512 512" xml:space="preserve" class=""><g><g xmlns="http://www.w3.org/2000/svg"><g><path d="m497.646 363.048c-2.542-4.812-6.799-8.347-12.008-9.937l-66.829-20.481c-27.52-8.431-51.578-24.78-69.57-47.259l-36.077-45.104c-10.722-13.399-26.704-21.077-43.869-21.077h-38.587c-17.155 0-33.148 7.678-43.87 21.087l-36.076 45.093c-17.981 22.479-42.039 38.817-69.57 47.259l-66.83 20.482c-5.209 1.59-9.466 5.125-12.008 9.937-2.531 4.812-3.044 10.324-1.412 15.512 1.674 5.366 5.377 9.686 10.418 12.165 5.052 2.479 10.732 2.772 16.004.816l19.017-7.061c57.29-21.255 108.397-53.796 151.89-96.724l.502-.492c10.878-10.742 25.292-16.663 40.575-16.663h21.307c15.282 0 29.696 5.92 40.575 16.663l.513.502c43.493 42.917 94.59 75.459 151.88 96.714l19.016 7.061c5.272 1.956 10.952 1.663 16.004-.816 5.042-2.479 8.745-6.799 10.429-12.155 1.62-5.198 1.118-10.71-1.424-15.522zm-247.642-105.521c-6.558 0-11.883-5.324-11.883-11.872s5.324-11.872 11.883-11.872c6.548 0 11.872 5.324 11.872 11.872s-5.324 11.872-11.872 11.872z" fill="#0a0908" data-original="#000000" class=""></path></g><g><path d="m284.007 136.295c0 8.985-3.494 17.447-9.853 23.807l-8.494 8.494c-6.318 6.318-9.801 14.717-9.801 23.65v15.439h-11.506v-15.439c0-12.008 4.676-23.295 13.169-31.788l8.494-8.493c4.184-4.184 6.485-9.749 6.485-15.669 0-15.774-12.824-28.598-28.598-28.598-15.763 0-28.598 12.824-28.598 28.598v1.506c0 3.18-2.573 5.753-5.753 5.753s-5.753-2.573-5.753-5.753v-1.506c0-22.113 17.991-40.104 40.104-40.104 22.113-.001 40.104 17.99 40.104 40.103z" fill="#0a0908" data-original="#000000" class=""></path></g></g></g></svg>
