<?xml version="1.0" encoding="iso-8859-1"?>
<!-- Generator: Adobe Illustrator 19.0.0, SVG Export Plug-In . SVG Version: 6.00 Build 0)  -->
<svg version="1.1" id="Capa_1" xmlns="http://www.w3.org/2000/svg" xmlns:xlink="http://www.w3.org/1999/xlink" x="0px" y="0px"
	 viewBox="0 0 512 512" style="enable-background:new 0 0 512 512;" xml:space="preserve">
<g>
	<path style="fill:#F5665D;" d="M228.939,387.498l-96.265-0.191l-3.388,27.101c-4.26,34.091,17.059,70.874,51.457,83.249
		c31.03-11.111,52.115-42.054,52.115-74.219c0-3.01-0.18-6.02-0.56-9.03L228.939,387.498z"/>
	<path style="fill:#F5665D;" d="M428.943,387.498l-94.265-0.187l-3.387,27.097c-4.219,33.761,16.65,70.163,50.464,82.883
		c30.478-11.415,51.108-42.037,51.108-73.853c0-3.01-0.18-6.02-0.56-9.03L428.943,387.498z"/>
	<path style="fill:#F5665D;" d="M328.751,172.654c0,8.03,1.42,19.03,3.4,30.451l99.358,7.094
		c2.824-14.139,4.244-25.656,4.244-37.545c0-50.423-23.835-79.449-53.493-121.964C352.551,93.309,328.751,122.245,328.751,172.654z"
		/>
</g>
<path style="fill:#FFFFFF;" d="M429.863,213.865l0.86,0.18c-2.53,12.08-6.02,26.12-10.44,43.831
	c-2.99,11.98-3.74,30.401-2.21,42.661l10.87,86.952v0.01c-9.99,30.211-38.031,54.501-73.191,54.501
	c-35.851,0-63.311-24.94-73.151-54.791l10.83-86.672c1.53-12.26,0.78-30.681-2.21-42.661c-2.465-8.672-8.834-35.985-12.07-54.771
	c12.94-30.061,32.801-56.671,58.001-77.631l18.6-15.48l21.08,20.25C400.992,153.444,419.182,182.134,429.863,213.865z"/>
<path style="fill:#F5665D;" d="M235.749,172.654c0-32.441-9.86-56.011-24.79-80.021c-9.571-15.398-21.227-30.975-33.704-49.174
	c-31.992,46.703-58.508,75.988-58.508,129.195c0,8.03,1.42,19.03,3.4,30.451l108.986,8.956
	C234.201,197.066,235.749,185.069,235.749,172.654z"/>
<path style="fill:#FFFFFF;" d="M228.939,387.488v0.01c-9.99,30.211-38.031,54.501-73.191,54.501
	c-35.851,0-63.311-24.94-73.151-54.791l10.83-86.672c1.53-12.26,0.78-30.681-2.21-42.661c-2.465-8.672-8.834-35.985-12.07-54.771
	c12.94-30.061,32.801-56.671,58.001-77.631l18.6-15.48l21.08,20.25c24.58,23.6,42.981,52.891,53.581,85.292
	c-2.51,11.74-5.89,25.36-10.13,42.341c-2.99,11.98-3.74,30.401-2.21,42.661L228.939,387.488z"/>
<path d="M356.001,391.998c-5.52,0-10,4.48-10,10c0,5.52,4.48,10,10,10s10-4.48,10-10
	C366.002,396.478,361.521,391.998,356.001,391.998z"/>
<path d="M155.998,391.998c-5.52,0-10,4.48-10,10c0,5.52,4.48,10,10,10c5.52,0,10-4.48,10-10
	C165.998,396.478,161.518,391.998,155.998,391.998z"/>
<path d="M81.788,260.394c2.545,10.28,3.409,27.339,1.966,38.903L69.524,413.168C63.508,461.303,101.735,512,155.999,512
	c53.051,0,92.749-49.163,86.475-98.831l-3.357-26.895c-0.001-0.009-0.001-0.018-0.002-0.028l-10.87-86.951
	c-1.447-11.6-0.574-28.731,1.989-39c7.285-29.18,15.768-60.541,15.768-87.644c0-49.237-21.459-79.663-47.77-116.979
	c-10.348-14.673-22.075-31.306-33.633-50.785c-1.772-2.995-4.997-4.877-8.566-4.889c-3.584-0.015-6.85,1.869-8.639,4.893
	c-11.603,19.558-23.353,36.231-33.72,50.941c-26.638,37.799-47.679,67.654-47.679,116.82
	C65.996,194.692,76.376,240.366,81.788,260.394z M210.828,255.454c-3.172,12.709-4.194,32.19-2.431,46.324l10.579,84.626
	c-8.445,23.024-30.813,45.595-62.978,45.595c-32.112,0-54.476-22.71-62.939-45.873l10.54-84.352
	c1.933-15.49,0.365-36.2-2.508-46.613c-2.252-8.094-8.052-32.607-11.313-50.77c12.299-27.431,30.917-52.018,54.018-71.232
	l11.725-9.758l14.632,14.056c22.676,21.771,39.96,48.938,50.142,78.687C217.965,226.756,214.98,238.821,210.828,255.454z
	 M155.998,492c-40.122,0-69.222-36.785-66.966-72.702c16.288,20.299,40.606,32.702,66.966,32.702
	c26.377,0,50.701-12.33,66.988-32.514c0.082,1.309,0.123,2.629,0.123,3.953C223.11,456.549,196.143,492,155.998,492z
	 M130.024,67.356c8.047-11.418,16.911-24,25.975-38.272c9.027,14.203,17.863,26.738,25.884,38.116
	c25.187,35.722,44.115,62.277,44.115,105.454c0,2.022-0.047,4.044-0.135,6.086c-10.87-20.636-25.006-39.53-41.858-55.709
	l-21.08-20.25c-3.672-3.528-9.409-3.732-13.325-0.475l-18.597,15.478c-17.561,14.606-32.763,32.038-44.959,51.365
	C87.028,128.378,105.17,102.622,130.024,67.356z"/>
<path d="M125.997,341.997v25.37c0,5.523,4.478,10,10,10c5.522,0,10-4.477,10-10v-25.37c0-5.514,4.486-10,10-10
	c5.514,0,10,4.486,10,10v25.37c0,5.523,4.478,10,10,10c5.522,0,10-4.477,10-10v-25.37c0-16.542-13.458-30.001-30.001-30.001
	S125.997,325.455,125.997,341.997z"/>
<path d="M281.791,260.394c2.545,10.28,3.409,27.339,1.966,38.903l-14.229,113.872C263.512,461.303,301.738,512,356.002,512
	c53.211,0,92.727-49.338,86.475-98.831l-3.357-26.895c-0.001-0.009-0.001-0.018-0.002-0.028l-10.87-86.951
	c-1.447-11.6-0.574-28.731,1.989-39.001c7.825-31.35,15.768-61.107,15.768-87.643c0-49.237-21.459-79.663-47.77-116.979
	c-10.348-14.673-22.075-31.306-33.633-50.785c-1.748-2.954-4.958-4.877-8.566-4.889c-3.628-0.015-6.871,1.906-8.638,4.893
	c-11.603,19.558-23.353,36.231-33.72,50.941C287.04,93.633,266,123.488,266,172.654C266,194.675,276.377,240.355,281.791,260.394z
	 M410.831,255.454c-3.172,12.709-4.194,32.19-2.431,46.324l10.579,84.626c-8.445,23.024-30.813,45.595-62.978,45.595
	c-32.112,0-54.476-22.71-62.939-45.873l10.54-84.352c1.764-14.131,0.741-33.612-2.431-46.321c-0.021-0.086-0.054-0.207-0.077-0.292
	c-2.252-8.094-8.052-32.607-11.313-50.77c12.299-27.431,30.917-52.018,54.018-71.232l11.725-9.758l14.631,14.055
	c22.655,21.754,39.972,48.936,50.145,78.651C417.82,227.439,414.553,240.535,410.831,255.454z M356.001,492
	c-40.122,0-69.222-36.785-66.966-72.702c16.288,20.299,40.606,32.702,66.966,32.702c26.377,0,50.701-12.33,66.988-32.514
	c0.082,1.309,0.123,2.629,0.123,3.953C423.114,456.549,396.146,492,356.001,492z M330.028,67.356
	c8.047-11.418,16.911-24,25.975-38.272c9.027,14.203,17.863,26.738,25.884,38.116c25.187,35.722,44.115,62.277,44.115,105.454
	c0,2.009-0.047,4.027-0.137,6.073c-10.874-20.631-25.019-39.528-41.856-55.695l-21.08-20.25c-3.673-3.528-9.409-3.732-13.325-0.475
	l-18.597,15.478c-17.56,14.605-32.763,32.038-44.959,51.365C287.031,128.378,305.173,102.622,330.028,67.356z"/>
<path d="M326.001,341.997v25.37c0,5.523,4.478,10,10,10s10-4.477,10-10v-25.37c0-5.514,4.486-10,10-10s10,4.486,10,10v25.37
	c0,5.523,4.478,10,10,10c5.522,0,10-4.477,10-10v-25.37c0-16.542-13.458-30.001-30.001-30.001
	C339.459,311.997,326.001,325.455,326.001,341.997z"/>
<g>
</g>
<g>
</g>
<g>
</g>
<g>
</g>
<g>
</g>
<g>
</g>
<g>
</g>
<g>
</g>
<g>
</g>
<g>
</g>
<g>
</g>
<g>
</g>
<g>
</g>
<g>
</g>
<g>
</g>
</svg>
