<?xml version="1.0" encoding="iso-8859-1"?>
<!-- Generator: Adobe Illustrator 19.0.0, SVG Export Plug-In . SVG Version: 6.00 Build 0)  -->
<svg version="1.1" id="Capa_1" xmlns="http://www.w3.org/2000/svg" xmlns:xlink="http://www.w3.org/1999/xlink" x="0px" y="0px"
	 viewBox="0 0 512 512" style="enable-background:new 0 0 512 512;" xml:space="preserve">
<g>
	<path style="fill:#7EC2DB;" d="M415.807,362.012c-1.19-33.984-8.413-64.308-19.352-85.972
		c-13.654,1.719-26.084,13.321-35.772,31.558c-12.679,23.828-20.688,58.985-20.688,98.202c0,3.37,0.06,6.699,0.18,9.999
		l57.002,50.723C412.073,436.132,417.033,395.768,415.807,362.012z"/>
	<path style="fill:#7EC2DB;" d="M215.823,362.012c-1.297-37.046-9.762-69.744-22.397-91.613
		c-13.243,2.166-25.287,13.638-34.728,31.408c-12.679,23.828-20.688,58.985-20.688,98.202c0,3.37,0.06,6.699,0.18,9.999
		l60.343,53.696C212.406,433.629,217.01,394.665,215.823,362.012z"/>
</g>
<path style="fill:#FFBF4E;" d="M355.992,116.031c11.049,0,19.998,17.909,19.998,39.997s-8.949,39.997-19.998,39.997
	c-11.049,0-19.998-17.909-19.998-39.997S344.943,116.031,355.992,116.031z"/>
<path style="fill:#FFFFFF;" d="M296.177,382.01c51.166,0.1,93.303,38.587,99.122,88.203c-10.519,19.798-24.268,31.788-39.307,31.788
	C324.404,502.001,298.526,449.135,296.177,382.01z"/>
<path style="fill:#FFBF4E;" d="M156.007,116.031c11.049,0,19.998,17.909,19.998,39.997s-8.949,39.997-19.998,39.997
	c-11.049,0-19.998-17.909-19.998-39.997S144.958,116.031,156.007,116.031z"/>
<path style="fill:#FFFFFF;" d="M96.192,382.01c51.166,0.1,93.303,38.587,99.122,88.203c-10.519,19.798-24.268,31.788-39.307,31.788
	C124.42,502.001,98.542,449.135,96.192,382.01z"/>
<path d="M345.993,342.013c0,5.52,4.48,9.999,9.999,9.999s9.999-4.48,9.999-9.999s-4.48-9.999-9.999-9.999
	S345.993,336.494,345.993,342.013z"/>
<path d="M156.007,352.013c5.52,0,9.999-4.48,9.999-9.999s-4.48-9.999-9.999-9.999s-9.999,4.48-9.999,9.999
	S150.488,352.013,156.007,352.013z"/>
<path d="M106.176,471.618c12.91,26.041,30.607,40.382,49.83,40.382c18.332,0,35.427-13.174,48.134-37.09
	c0.014-0.027,0.028-0.054,0.042-0.081c0.01-0.02,0.021-0.039,0.031-0.059c13.847-26.102,21.787-63.542,21.787-102.759
	c0-32.863-5.689-70.408-20.164-99.607c-10.635-21.453-24.521-34.956-39.831-39.051v-29.976
	c11.885-6.564,19.998-24.746,19.998-47.348s-8.113-40.784-19.998-47.348V86.603c0-13.355-5.199-25.909-14.638-35.349
	c-0.016-0.016-0.032-0.032-0.049-0.049c-3.426-3.445-5.312-8.02-5.312-12.889c0-14.461,12.597-18.319,20.04-18.319
	c11.052,0,19.956,6.41,19.956,18.319c0.293,1.581-3.034,32.827,22.927,58.786c3.905,3.904,10.236,3.904,14.141,0
	c3.905-3.905,3.905-10.236,0-14.142c-19.661-19.66-16.799-43.144-17.069-44.644C206.004,15.165,188.05,0,166.048,0
	c-19.896,0-40.039,13.162-40.039,38.317c0,10.228,3.98,19.841,11.207,27.069c0.016,0.016,0.032,0.031,0.049,0.048
	c5.638,5.658,8.742,13.174,8.742,21.169v22.076c-11.885,6.564-19.998,24.746-19.998,47.348s8.113,40.784,19.998,47.348v29.979
	c-14.491,3.897-27.773,16.253-38.135,35.757c-0.014,0.025-0.027,0.052-0.04,0.077c-0.011,0.021-0.022,0.043-0.033,0.064
	c-13.846,26.102-21.786,63.542-21.786,102.758C86.013,404.87,91.699,442.416,106.176,471.618z M156.007,492.002
	c-11.061,0-22.692-10.667-31.914-29.266c-9.212-18.583-15.24-43.142-17.293-70.058c39.757,4.775,72.04,35.523,78.146,75.619
	C176.203,483.608,165.998,492.002,156.007,492.002z M150.809,132.218c2.556-5.112,4.853-6.188,5.199-6.188s2.644,1.075,5.199,6.188
	c3.051,6.104,4.801,14.781,4.801,23.811c0,9.03-1.75,17.708-4.801,23.811c-2.556,5.112-4.853,6.188-5.199,6.188
	s-2.644-1.075-5.199-6.188c-3.051-6.104-4.801-14.781-4.801-23.811C146.008,146.999,147.758,138.32,150.809,132.218z
	 M114.879,305.359c1.729,4.022,3.7,7.955,5.923,11.786c2.776,4.783,8.894,6.398,13.667,3.63c4.776-2.772,6.402-8.892,3.629-13.668
	c-5.652-9.739-9.355-20.276-11.042-31.363c8.747-15.323,18.957-23.724,28.952-23.724c11.061,0,22.692,10.667,31.914,29.266
	c9.216,18.591,15.245,43.165,17.295,70.086c-3.601-0.43-7.176-1.075-10.702-1.935c-5.363-1.303-10.775,1.981-12.083,7.346
	s1.981,10.775,7.346,12.084c5.331,1.3,10.757,2.2,16.223,2.694c0,0.15,0.004,0.3,0.004,0.45c0,23.958-3.134,47.018-8.863,66.638
	c-15.651-36.523-50.402-62.482-91.125-66.179c0-0.153-0.004-0.306-0.004-0.458C106.011,348.047,109.146,324.982,114.879,305.359z"/>
<path d="M408.917,97.103c3.906,3.904,10.235,3.904,14.142,0c3.905-3.905,3.905-10.236,0-14.142
	c-19.664-19.661-16.801-43.145-17.071-44.645C405.988,15.166,388.035,0,366.033,0c-19.896,0-40.039,13.162-40.039,38.317
	c0,10.228,3.98,19.841,11.218,27.079c5.663,5.662,8.78,13.193,8.78,21.207v22.076c-11.885,6.564-19.998,24.746-19.998,47.348
	s8.113,40.784,19.998,47.348v29.979c-14.491,3.897-27.773,16.253-38.135,35.757c-0.014,0.026-0.027,0.052-0.041,0.078
	c-0.011,0.02-0.021,0.041-0.032,0.061c-13.847,26.102-21.788,63.543-21.788,102.76c0,32.864,5.687,70.406,20.164,99.607
	C319.07,497.659,336.766,512,355.991,512c18.333,0,35.428-13.174,48.134-37.09c0.014-0.027,0.028-0.054,0.042-0.081
	c0.01-0.02,0.021-0.039,0.031-0.059c13.847-26.101,21.788-63.543,21.788-102.759c0-32.864-5.687-70.406-20.164-99.607
	c-10.635-21.453-24.52-34.956-39.831-39.051v-29.976c11.885-6.564,19.998-24.746,19.998-47.348s-8.113-40.784-19.998-47.348V86.603
	c0-13.355-5.199-25.909-14.647-35.358c-3.451-3.45-5.352-8.041-5.352-12.928c0-14.461,12.597-18.319,20.04-18.319
	c11.055,0,19.956,6.412,19.956,18.319C386.281,39.898,382.956,71.142,408.917,97.103z M355.992,492.002
	c-11.061,0-22.692-10.667-31.913-29.266c-9.212-18.583-15.24-43.142-17.293-70.058c39.757,4.775,72.04,35.523,78.147,75.619
	C376.187,483.608,365.982,492.002,355.992,492.002z M387.904,281.286c9.216,18.591,15.245,43.165,17.295,70.086
	c-3.602-0.43-7.177-1.075-10.703-1.935c-5.366-1.307-10.775,1.981-12.083,7.347c-1.308,5.365,1.981,10.774,7.347,12.083
	c5.332,1.3,10.758,2.2,16.223,2.694c0,0.15,0.004,0.3,0.004,0.45c0,23.959-3.134,47.018-8.863,66.638
	c-15.65-36.523-50.401-62.482-91.125-66.18c0-0.153-0.004-0.305-0.004-0.458c0-23.965,3.136-47.03,8.868-66.652
	c1.729,4.022,3.7,7.955,5.923,11.786c2.779,4.789,8.902,6.396,13.667,3.629c4.776-2.771,6.401-8.891,3.629-13.667
	c-5.652-9.74-9.356-20.277-11.041-31.364c8.747-15.323,18.957-23.723,28.952-23.723C367.052,252.02,378.684,262.688,387.904,281.286
	z M361.19,179.839c-2.556,5.112-4.853,6.188-5.199,6.188s-2.644-1.075-5.199-6.188c-3.051-6.104-4.801-14.781-4.801-23.811
	c0-9.03,1.75-17.708,4.801-23.811c2.556-5.112,4.853-6.188,5.199-6.188s2.644,1.075,5.199,6.188
	c3.051,6.104,4.801,14.781,4.801,23.811C365.991,165.058,364.241,173.735,361.19,179.839z"/>
<g>
</g>
<g>
</g>
<g>
</g>
<g>
</g>
<g>
</g>
<g>
</g>
<g>
</g>
<g>
</g>
<g>
</g>
<g>
</g>
<g>
</g>
<g>
</g>
<g>
</g>
<g>
</g>
<g>
</g>
</svg>
