<?xml version="1.0" encoding="iso-8859-1"?>
<!-- Generator: Adobe Illustrator 19.0.0, SVG Export Plug-In . SVG Version: 6.00 Build 0)  -->
<svg version="1.1" id="Capa_1" xmlns="http://www.w3.org/2000/svg" xmlns:xlink="http://www.w3.org/1999/xlink" x="0px" y="0px"
	 viewBox="0 0 512 512" style="enable-background:new 0 0 512 512;" xml:space="preserve">
<path style="fill:#3A426B;" d="M476,362v80c0,11.05-4.177,20-9.333,20H448V362H476z"/>
<path style="fill:#FFFFFF;" d="M476,342v20h-60v-60h20C458.09,302,476,319.91,476,342z"/>
<path style="fill:#7EC2DB;" d="M416,482c0-59.581,0-215.676,0-272c0-74.727-51.231-137.493-120.499-155.082
	C226.243,72.505,175,135.259,175,210c0,83.112,0,188.893,0,272c0,11.05,8.95,20,20,20h201C407.05,502,416,493.05,416,482z"/>
<path style="fill:#3A426B;" d="M376,362v80c0,11.05-7.533,20-16.833,20H190.833c-9.3,0-16.833-8.95-16.833-20v-80
	C182.813,362,366.357,362,376,362z"/>
<path style="fill:#FFFFFF;" d="M376,322v40c-11.551,0-229.575,0-240,0v-40c0-11.05,8.95-20,20-20h200C367.05,302,376,310.95,376,322
	z"/>
<path style="fill:#3A426B;" d="M256,10c-22.09,0-40,17.91-40,40v5.04h80V50C296,27.91,278.09,10,256,10z"/>
<rect x="227.719" y="161.717" transform="matrix(-0.7071 0.7071 -0.7071 -0.7071 571.3769 143.3307)" style="fill:#FFFFFF;" width="56.569" height="56.569"/>
<path style="fill:#3A426B;" d="M96,362v100H77.333C72.177,462,68,453.05,68,442v-80H96z"/>
<path style="fill:#FFFFFF;" d="M96,302v60H36v-20c0-22.09,17.91-40,40-40H96z"/>
<path d="M256,100c5.52,0,10-4.48,10-10s-4.48-10-10-10s-10,4.48-10,10S250.48,100,256,100z"/>
<path d="M136,220c5.522,0,10-4.478,10-10c0-46.73,29.676-88.484,73.845-103.898c5.215-1.819,7.967-7.521,6.146-12.736
	c-1.819-5.214-7.517-7.969-12.736-6.146C161.065,105.432,126,154.773,126,210C126,215.522,130.478,220,136,220z"/>
<path d="M356,292H156c-16.542,0-30,13.458-30,30v120c0,16.542,13.458,30,30,30h200c16.542,0,30-13.458,30-30V322
	C386,305.458,372.542,292,356,292z M156,312h200c5.514,0,10,4.486,10,10v30H146v-30C146,316.486,150.486,312,156,312z M356,452H156
	c-5.514,0-10-4.486-10-10v-70h180v30c0,5.522,4.478,10,10,10s10-4.478,10-10v-30h20v70C366,447.514,361.514,452,356,452z"/>
<path d="M248.929,142.929l-40,40c-3.905,3.905-3.905,10.237,0,14.143l40,40C250.882,239.023,253.44,240,256,240
	s5.118-0.977,7.071-2.929l40-40c3.905-3.905,3.905-10.237,0-14.143l-40-40C259.165,139.024,252.835,139.024,248.929,142.929z
	 M256,215.857L230.143,190L256,164.143L281.857,190L256,215.857z"/>
<path d="M436,292h-10v-82c0-75.02-48.991-140.778-120.064-162.543C304.606,21.063,282.717,0,256,0s-48.607,21.063-49.936,47.457
	C134.991,69.222,86,134.98,86,210v82H76c-27.57,0-50,22.43-50,50v100c0,16.542,13.458,30,30,30h30v10c0,16.542,13.458,30,30,30h280
	c16.542,0,30-13.458,30-30v-10h30c16.542,0,30-13.458,30-30V342C486,314.43,463.57,292,436,292z M436,312c16.542,0,30,13.458,30,30
	v10h-40v-40H436z M256,20c13.952,0,25.709,9.573,29.049,22.496C275.491,40.851,265.77,40,256,40c-9.77,0-19.491,0.851-29.049,2.496
	C230.291,29.573,242.048,20,256,20z M76,312h10v40H46v-10C46,325.458,59.458,312,76,312z M56,452c-5.514,0-10-4.486-10-10v-70h40v80
	H56z M406,482c0,5.514-4.486,10-10,10H116c-5.514,0-10-4.486-10-10V210c0-68.483,46.259-128.224,112.493-145.275
	C230.67,61.59,243.289,60,256,60s25.33,1.59,37.507,4.725C359.741,81.776,406,141.517,406,210V482z M456,452h-30v-80h40v70
	C466,447.514,461.514,452,456,452z"/>
<g>
</g>
<g>
</g>
<g>
</g>
<g>
</g>
<g>
</g>
<g>
</g>
<g>
</g>
<g>
</g>
<g>
</g>
<g>
</g>
<g>
</g>
<g>
</g>
<g>
</g>
<g>
</g>
<g>
</g>
</svg>
