<?xml version="1.0" encoding="iso-8859-1"?>
<!-- Generator: Adobe Illustrator 19.0.0, SVG Export Plug-In . SVG Version: 6.00 Build 0)  -->
<svg version="1.1" id="Capa_1" xmlns="http://www.w3.org/2000/svg" xmlns:xlink="http://www.w3.org/1999/xlink" x="0px" y="0px"
	 viewBox="0 0 512 512" style="enable-background:new 0 0 512 512;" xml:space="preserve">
<path style="fill:#FFBF4E;" d="M419.59,277.446c-0.726-1.965-19.653-50.164-51.443-145.041c-0.968-2.887-1.946-5.815-2.937-8.789
	c-9.698-29.094-45.862-36.125-66.21-16.514c-2.522,2.43-4.815,5.246-6.77,8.504l-18.06,30.09c-4.12,6.87-11.15,10.28-18.17,10.28
	s-14.05-3.41-18.17-10.28l-7.977-13.29c-29.577,88.3-45.259,128.31-51.443,145.04c-47.5,14.6-82.41,35.43-82.41,58.54
	c0,39.311,89.823,72.002,203,78.73c113.177-6.729,203-39.419,203-78.73C502,312.876,467.09,292.046,419.59,277.446z"/>
<path style="fill:#FFFFFF;" d="M419.59,277.446c-2.13-0.66-4.28-1.3-6.46-1.93c-19.56,7.75-50.42,13.91-87.62,17.38l-19.38,1.52
	c-15.91,1.02-32.73,1.57-50.13,1.57c-67.5,0-126.32-8.26-157.13-20.47c-2.18,0.63-4.33,1.27-6.46,1.93
	c-9.81,25.49-15.48,38.22-16.41,38.54c0,22.09,80.59,40,180,40s180-17.91,180-40C435.07,315.666,429.4,302.936,419.59,277.446z"/>
<path style="fill:#3A426B;" d="M419.59,277.446c-2.13-0.66-4.28-1.3-6.46-1.93c-19.56,7.75-50.42,13.91-87.62,17.38l-19.38,1.52
	c-15.91,1.02-32.73,1.57-50.13,1.57c-30.628,0-59.456-1.705-84.704-4.704c-7.512,18.858-11.289,38.636-11.336,58.538
	c27.794,3.904,60.727,6.166,96.04,6.166c99.41,0,180-17.91,180-40C435.07,315.666,429.4,302.936,419.59,277.446z"/>
<path d="M316,305.986c5.52,0,10-4.48,10-10c0-1.08-0.17-2.12-0.49-3.09c-1.3-4.01-5.07-6.91-9.51-6.91c-4.98,0-9.12,3.65-9.87,8.43
	c-0.09,0.51-0.13,1.03-0.13,1.57C306,301.506,310.48,305.986,316,305.986z"/>
<path d="M80.227,402.072c47.861,15.421,110.285,23.914,175.773,23.914s127.912-8.493,175.773-23.914
	C484.258,385.16,512,362.309,512,335.986c0-32.29-45.057-53.878-84.807-66.632c-10.414-27.298-27.923-75.168-52.496-148.9
	c-6.292-18.875-22.509-31.952-42.322-34.126c-19.808-2.178-38.483,7.072-48.719,24.132l-18.063,30.093
	c-2.936,4.896-7.688,5.424-9.594,5.424s-6.658-0.528-9.596-5.427l-18.06-30.088c-10.236-17.061-28.909-26.308-48.72-24.134
	c-19.813,2.174-36.03,15.251-42.322,34.126c-24.579,73.75-42.091,121.625-52.496,148.9C45.041,282.116,0,303.702,0,335.986
	C0,362.309,27.742,385.16,80.227,402.072z M156.276,126.778c3.85-11.548,13.394-19.238,25.53-20.57
	c12.146-1.336,23.126,4.104,29.389,14.545l18.059,30.087c5.685,9.478,15.683,15.137,26.746,15.137s21.062-5.659,26.744-15.134
	l18.062-30.092c6.263-10.438,17.24-15.88,29.388-14.543c12.137,1.332,21.681,9.022,25.529,20.57
	c22.266,66.808,38.779,112.531,49.497,141.022c-12.912,4.582-30.369,8.56-51.233,11.64c-5.464,0.806-9.239,5.889-8.433,11.353
	c0.809,5.482,5.909,9.238,11.353,8.433c22.259-3.285,41.153-7.644,55.455-12.752c2.857,7.335,9.356,23.741,12.761,30.745
	c-3.215,3.634-15.447,11.327-47.716,18.089c-32.867,6.886-75.984,10.679-121.407,10.679s-88.54-3.793-121.407-10.679
	c-32.269-6.762-44.501-14.455-47.716-18.089c3.373-6.939,9.792-23.121,12.758-30.736c33.914,12.135,92.177,19.504,156.365,19.504
	c6.75,0,13.563-0.083,20.246-0.247c5.521-0.136,9.888-4.721,9.752-10.242c-0.136-5.522-4.747-9.899-10.242-9.752
	c-6.521,0.16-13.168,0.241-19.756,0.241c-61.073,0-117.825-7.024-149.221-18.181C117.496,239.314,134.01,193.59,156.276,126.778z
	 M75.145,293.939c-3.786,9.274-5.954,14.002-6.848,15.669c-1.451,1.753-2.298,3.992-2.298,6.378
	c0,16.546,19.807,28.991,60.552,38.046c34.689,7.709,80.662,11.954,129.448,11.954s94.759-4.245,129.448-11.954
	c40.745-9.055,60.552-21.5,60.552-38.046c0-2.386-0.847-4.625-2.298-6.378c-0.893-1.667-3.06-6.393-6.848-15.67
	C470.938,306.99,492,322.749,492,335.986c0,16.071-24.808,33.66-66.36,47.049c-45.267,14.586-107.098,22.951-169.64,22.951
	s-124.373-8.365-169.64-22.951C44.808,369.646,20,352.058,20,335.986C20,322.751,41.056,306.995,75.145,293.939z"/>
<g>
</g>
<g>
</g>
<g>
</g>
<g>
</g>
<g>
</g>
<g>
</g>
<g>
</g>
<g>
</g>
<g>
</g>
<g>
</g>
<g>
</g>
<g>
</g>
<g>
</g>
<g>
</g>
<g>
</g>
</svg>
