<?xml version="1.0" encoding="iso-8859-1"?>
<!-- Generator: Adobe Illustrator 19.0.0, SVG Export Plug-In . SVG Version: 6.00 Build 0)  -->
<svg version="1.1" id="Capa_1" xmlns="http://www.w3.org/2000/svg" xmlns:xlink="http://www.w3.org/1999/xlink" x="0px" y="0px"
	 viewBox="0 0 512.002 512.002" style="enable-background:new 0 0 512.002 512.002;" xml:space="preserve">
<path style="fill:#7EC2DB;" d="M401.741,270.818l0.03-0.21v-38.402L245.719,150.93l-35.91-18.703l-12.877,25.755
	c-1.71,3.429-3.579,6.679-5.569,9.748c-0.468,0.721-0.943,1.432-1.425,2.134c-31.346,45.686-91.739,50.714-110.102,32.349
	c-1.31-1.31-2.447-2.64-3.446-3.988c-6.513,30.893-1.472,61.602,19.65,82.724c49.615,2.624,55.637,9.984,130.333,6.935l92.666,3.062
	c4.849,0.939,40.67,12.194,91.145,12.194c33.435,0,63.96-4.644,90.002-10.508l1.564-0.437v-19.996
	C421.39,271.803,418.533,273.17,401.741,270.818z"/>
<g>
	<path style="fill:#FFFFFF;" d="M501.751,266.339v5.859h-81.133c-5.889,0-12.307-0.46-18.876-1.38l0.03-0.21v-38.402h65.846
		C486.46,232.206,501.751,247.5,501.751,266.339z"/>
	<path style="fill:#FFFFFF;" d="M461.759,303.361c-24.385,6.798-79.678,28.824-148.829,28.824c-44.28,0-79.381-10.455-82.133-10.988
		c-8.888-15.707-3.539-34.183,10.888-42.831l73.665-44.211c-0.109-0.059-82.005-43.938-82.123-44.001l-32.703,19.626
		c-37.952,22.775-58.418,65.567-53.229,108.658c-15.427,0.63-27.594,0.76-37.722,0.57c-34.313-0.64-45.141-4.989-79.724-6.819
		c-14.687,14.687-18.726,31.004-19.736,43.041c-0.85,10.148,6.459,19.096,16.487,20.866c44.116,7.748,94.464,3.588,139.781-14.547
		c15.237-6.089,32.003-7.229,47.92-3.249c12.428,2.837,47.393,13.877,98.63,13.877c61.727,0,113.767-14.977,150.819-27.324
		c22.695-7.568,38.002-28.734,38.002-52.659L461.759,303.361z"/>
</g>
<path d="M82.087,262.2c5.519,0,9.998-4.479,9.998-9.998c0-5.519-4.479-9.998-9.998-9.998s-9.998,4.479-9.998,9.998
	S76.568,262.2,82.087,262.2z"/>
<path d="M467.868,222.208h-63.399l-189.79-98.849c-4.966-2.585-11.07-0.587-13.56,4.396l-12.882,25.766
	c-13.759,27.6-40.628,45.229-69.068,48.227c-13.961,1.475-26.526-1.121-32.01-6.606c-7.369-7.369-7.469-15.15-7.011-28.267
	c0.173-4.952,0.352-10.071-0.093-15.474c-0.291-3.526-2.424-6.638-5.61-8.179c-3.186-1.542-6.949-1.284-9.895,0.678l-0.336,0.224
	C21.917,172.328-3.249,224.96,0.339,268.24c1.391,16.769,7.042,31.761,16.446,43.907C7.259,324.172,1.747,338.338,0.4,354.398
	c-1.278,15.272,9.346,28.834,24.721,31.548c9.945,1.747,25.9,3.829,45.431,3.829c34.81,0,68.385-6.373,99.791-18.939
	c13.375-5.346,27.825-6.323,41.782-2.835c8.674,1.738,46.44,14.177,101.058,14.177c62.436,0,115.086-14.877,153.982-27.838
	c26.818-8.943,44.837-33.918,44.837-62.143v-25.855C511.999,242.021,492.214,222.208,467.868,222.208z M156.802,308.022
	c-1.024-36.268,17.584-70.748,49.115-89.669l27.835-16.705l20.539,11.004l-38.074,22.856
	c-25.434,15.249-40.185,42.472-39.478,71.399C169.666,307.351,163.05,307.721,156.802,308.022z M196.716,305.965
	c-0.353-21.605,10.751-41.895,29.787-53.308l48.317-29.004l20.526,10.998l-58.554,35.142c-13.697,8.212-20.876,22.964-19.94,37.953
	C210.174,306.617,203.446,306.026,196.716,305.965z M238.096,312.662c-3.549-9.735-0.071-20.295,8.983-25.722l68.799-41.29
	l39.475,21.15c11.902,6.593,27.975,11.537,45.253,13.921c6.996,0.979,13.812,1.477,20.263,1.477h71.135v2.41
	c-36.689,10.412-28.58,7.661-48.08,13.841c-43.159,13.675-82.933,23.741-130.743,23.741
	C272.606,322.188,239.058,312.843,238.096,312.662z M491.631,262.2h-70.763c-2.858,0-5.817-0.121-8.848-0.351v-19.645h55.849
	C479.449,242.204,489.562,250.483,491.631,262.2z M214.457,145.79l177.567,92.482v20.611c-10.405-2.299-19.899-5.644-27.031-9.602
	c-0.043-0.024-0.087-0.048-0.131-0.071c-17.128-9.177-143.367-76.812-159.427-85.417c0.231-0.447,0.469-0.892,0.692-1.34
	L214.457,145.79z M59.985,173.052c-0.092,11.876,1.432,24.63,13.031,36.23c9.879,9.879,27.913,14.495,48.247,12.352
	c28.746-3.031,55.558-18.13,73.373-40.944l18.585,9.958l-17.595,10.559c-37.818,22.694-60.113,64.087-58.805,107.602
	c-6.423,0.185-12.389,0.276-17.993,0.277c-1.273-8.96-3.515-17.735-6.702-26.19c-1.949-5.167-7.715-7.774-12.882-5.829
	c-5.167,1.948-7.776,7.715-5.829,12.882c2.28,6.047,3.977,12.294,5.092,18.667c-12.029-0.607-21.05-1.727-30.459-2.898
	c-9.617-1.198-19.547-2.433-33.372-3.282c-15.915-18.164-19.123-45.79-8.938-75.786c17.779,5.349,19.972,10.035,25.565,10.035
	c3.506,0,6.909-1.849,8.739-5.127c2.691-4.821,0.965-10.912-3.856-13.602c-7.203-4.021-14.755-7.282-22.549-9.782
	C40.49,195.021,49.551,182.957,59.985,173.052z M460.837,335.368c-37.46,12.482-88.097,26.811-147.658,26.811
	c-52.092,0-87.926-11.952-96.204-13.578c-18.062-4.519-36.754-3.249-54.06,3.666c-29.036,11.619-60.113,17.51-92.366,17.51
	c-18.09,0-32.809-1.919-41.964-3.526c-5.036-0.889-8.664-5.363-8.261-10.185c1.104-13.153,5.651-24.197,13.869-33.625
	c12.852,0.813,22.258,1.985,31.386,3.121c45.047,5.612,76.056,3.795,122.499,0.645c0.079-0.004,0.157-0.008,0.236-0.014
	c11.198-0.761,22.474,0.251,33.516,3.002c8.18,1.631,42.048,12.987,91.35,12.987c50.28,0,91.997-10.483,136.783-24.676
	c18.761-5.943,11.569-3.478,39.913-11.548C485.554,319.576,474.948,330.662,460.837,335.368z"/>
<g>
</g>
<g>
</g>
<g>
</g>
<g>
</g>
<g>
</g>
<g>
</g>
<g>
</g>
<g>
</g>
<g>
</g>
<g>
</g>
<g>
</g>
<g>
</g>
<g>
</g>
<g>
</g>
<g>
</g>
</svg>
