<?xml version="1.0" encoding="iso-8859-1"?>
<!-- Generator: Adobe Illustrator 19.0.0, SVG Export Plug-In . SVG Version: 6.00 Build 0)  -->
<svg version="1.1" id="Capa_1" xmlns="http://www.w3.org/2000/svg" xmlns:xlink="http://www.w3.org/1999/xlink" x="0px" y="0px"
	 viewBox="0 0 512 512" style="enable-background:new 0 0 512 512;" xml:space="preserve">
<g>
	<path style="fill:#B3674A;" d="M199.951,70.598c0.001-0.003,0.002-0.006,0.002-0.008C199.951,70.598,199.95,70.602,199.951,70.598z
		"/>
	<path style="fill:#B3674A;" d="M384.439,112.121C384.441,112.127,384.441,112.126,384.439,112.121L384.439,112.121z"/>
	<path style="fill:#B3674A;" d="M384.393,111.951c0.008,0.03,0.016,0.058,0.022,0.082
		C384.409,112.011,384.402,111.984,384.393,111.951z"/>
	<path style="fill:#B3674A;" d="M384.32,111.684c0.003,0.011,0.006,0.022,0.01,0.036
		C384.326,111.707,384.323,111.695,384.32,111.684z"/>
	<path style="fill:#B3674A;" d="M384.292,111.58C384.285,111.554,384.285,111.557,384.292,111.58L384.292,111.58z"/>
	<path style="fill:#B3674A;" d="M199.953,70.59c0.001-0.003,0.002-0.007,0.003-0.012C199.955,70.582,199.954,70.586,199.953,70.59z"
		/>
	<path style="fill:#B3674A;" d="M384.33,111.719c0.002,0.007,0.004,0.013,0.005,0.02
		C384.333,111.732,384.331,111.726,384.33,111.719z"/>
	<path style="fill:#B3674A;" d="M200.009,70.384c-0.006,0.022-0.012,0.043-0.017,0.063c0.002-0.008,0.004-0.016,0.007-0.024
		C200.002,70.41,200.005,70.398,200.009,70.384z"/>
	<path style="fill:#B3674A;" d="M199.956,70.578c0.002-0.009,0.005-0.019,0.007-0.027C199.961,70.561,199.958,70.57,199.956,70.578z
		"/>
	<path style="fill:#B3674A;" d="M384.296,111.594c-0.539-1.976-2.859-10.487-11.339-41.594H200.114
		c-0.002,0.009-0.004,0.015-0.006,0.024c-0.002,0.006-0.004,0.013-0.006,0.022c0,0.002-0.001,0.003-0.001,0.005
		c0-0.001,0-0.001,0.001-0.002c-0.011,0.041-0.029,0.108-0.057,0.209c-0.013,0.047-0.024,0.09-0.034,0.126
		c0.008-0.031,0.017-0.063,0.026-0.095c-0.011,0.04-0.023,0.084-0.036,0.134c-0.005,0.019-0.01,0.038-0.015,0.054
		c0.003-0.009,0.005-0.02,0.008-0.03c-0.009,0.033-0.018,0.067-0.028,0.104c0.002-0.008,0.004-0.016,0.007-0.026
		c-0.012,0.045-0.019,0.068-0.02,0.073c-0.541,1.984-2.675,9.806-9.917,36.352c-32.55,119.36-29.04,253.55,10.08,370.91
		c31.199,12.005,63.645,19.523,96.406,22.574c2.367-0.221,4.733-0.456,7.096-0.724l55.66-10.76c11.35-3.13,22.6-6.82,33.68-11.09
		c11.83-53.24,17.75-109.08,17.75-165.08c0-68.1-8.75-136.439-26.27-200.668c-0.001-0.003-0.002-0.008-0.003-0.012
		c-0.021-0.076-0.038-0.14-0.054-0.198c-0.016-0.06-0.036-0.133-0.061-0.222c0,0.001,0.001,0.003,0.001,0.004
		c-0.001-0.002-0.001-0.005-0.002-0.007c-0.004-0.014-0.008-0.03-0.012-0.045c0.002,0.006,0.003,0.011,0.005,0.017
		C384.304,111.625,384.299,111.608,384.296,111.594z M200.083,70.114c-0.008,0.029-0.015,0.056-0.022,0.082
		C200.069,70.166,200.076,70.139,200.083,70.114z M199.983,70.481c-0.003,0.012-0.006,0.021-0.009,0.032
		C199.977,70.503,199.98,70.492,199.983,70.481z"/>
	<path style="fill:#B3674A;" d="M384.306,111.632c-0.006-0.022-0.011-0.04-0.014-0.052c0.001,0.004,0.002,0.009,0.004,0.015
		C384.299,111.608,384.302,111.619,384.306,111.632z"/>
	<path style="fill:#B3674A;" d="M384.393,111.951c-0.018-0.068-0.039-0.144-0.058-0.212c0.012,0.044,0.027,0.099,0.044,0.162
		C384.384,111.918,384.389,111.937,384.393,111.951z"/>
	<path style="fill:#B3674A;" d="M200.108,70.024c0.003-0.012,0.005-0.02,0.006-0.024l0,0c-0.002,0.007-0.006,0.024-0.013,0.049
		c0-0.001,0.001-0.002,0.001-0.003C200.104,70.038,200.105,70.031,200.108,70.024z"/>
	<path style="fill:#B3674A;" d="M384.436,112.11c0,0.001,0,0.001,0,0.002c0.001,0.005,0.002,0.007,0.002,0.009
		c-0.003-0.012-0.012-0.044-0.024-0.087c0.008,0.03,0.014,0.051,0.018,0.066C384.434,112.103,384.435,112.106,384.436,112.11z"/>
</g>
<path style="fill:#FFFFFF;" d="M239.956,50c0-20.9,16.059-38.063,36.502-39.838c-1.155-0.1-2.321-0.162-3.502-0.162h-40
	c-22.081,0-40,17.921-40,40c0,22.081,17.899,40,40,40h40c1.18,0,2.344-0.062,3.498-0.162C255.997,88.063,239.956,70.902,239.956,50z
	"/>
<path style="fill:#FFBF4E;" d="M312.956,50c0-20.902-16.04-38.063-36.498-39.838C256.015,11.937,239.956,29.1,239.956,50
	c0,20.902,16.04,38.063,36.498,39.838C296.897,88.063,312.956,70.9,312.956,50z"/>
<rect x="341.96" y="30" style="fill:#3A426B;" width="31" height="40"/>
<path style="fill:#FFFFFF;" d="M332.956,317.86c0,0-17.49,104.97-29.34,181.85c7.296-0.822,14.575-1.875,21.826-3.146
	c5.565-36.002,12.275-77.65,17.824-111.684L332.956,317.86z"/>
<g>
	<path style="fill:#3A426B;" d="M343.266,384.88c-5.549,34.034-12.259,75.682-17.824,111.684
		c11.363-1.991,22.657-4.525,33.834-7.614L343.266,384.88z"/>
	<rect x="165.96" y="30" style="fill:#3A426B;" width="32.35" height="40"/>
</g>
<path d="M141.206,267.86c5.52,0,10-4.48,10-10c0-5.52-4.48-10-10-10C127.966,247.86,127.986,267.86,141.206,267.86z"/>
<path d="M373.206,20h-60.02c-9.376-12.457-24.2-20-39.98-20h-40c-15.73,0-30.393,7.252-39.978,20h-60.022c-5.523,0-10,4.477-10,10
	v38.66l-9.728,35.659c-16.472,60.402-23.936,124.026-22.185,189.104c1.754,65.195,12.664,128.312,32.426,187.598
	c0.945,2.834,3.107,5.098,5.896,6.171C172.392,503.654,217.339,512,263.206,512c47.13,0,92.497-8.97,133.596-24.809
	c3.125-1.204,5.439-3.893,6.166-7.162c11.937-53.716,17.988-109.987,17.988-167.249c0-70.138-8.957-138.538-26.621-203.3
	l-11.129-40.818V30C383.206,24.477,378.729,20,373.206,20z M322.189,40h41.017v20h-41.017c0.669-3.28,1.017-6.63,1.017-10
	S322.858,43.28,322.189,40z M233.206,20h40c16.252,0,30,13.151,30,30c0,16.456-13.33,30-30,30h-40c-16.286,0-30-13.183-30-30
	C203.206,33.559,216.515,20,233.206,20z M143.206,39.9h41.017c-0.669,3.28-1.017,6.73-1.017,10.1s0.348,6.72,1.017,10h-41.017V39.9z
	 M315.794,488.046c5.492-35.229,11.868-74.706,17.076-106.6l15.4,100.108C337.562,484.221,326.704,486.398,315.794,488.046z
	 M400.956,312.78c0,53.932-5.503,106.936-16.361,157.636c-5.554,2.041-11.214,3.936-16.924,5.709L343.09,316.339
	c-0.747-4.855-4.909-8.449-9.821-8.479c-4.895-0.052-9.119,3.511-9.927,8.356c-0.169,1.016-16.498,99.077-28.175,174.322
	c-10.597,0.965-21.314,1.462-31.96,1.462c-41.826,0-82.845-7.335-121.994-21.808c-36.877-113.778-39.988-244.918-8.438-360.611
	L140.844,80h52.383c9.377,12.457,24.201,20,39.98,20h40c15.704,0,30.372-7.229,39.979-20h52.383l9.471,34.741
	C392.236,177.79,400.956,244.42,400.956,312.78z"/>
<path d="M151.272,295.693c-0.152-5.521-4.761-9.889-10.273-9.719c-5.521,0.153-9.872,4.753-9.719,10.273
	c1.442,51.973,9.679,103.578,24.481,153.381c1.574,5.296,7.144,8.31,12.435,6.736c5.294-1.573,8.31-7.14,6.736-12.435
	C160.627,395.798,152.666,345.923,151.272,295.693z"/>
<g>
</g>
<g>
</g>
<g>
</g>
<g>
</g>
<g>
</g>
<g>
</g>
<g>
</g>
<g>
</g>
<g>
</g>
<g>
</g>
<g>
</g>
<g>
</g>
<g>
</g>
<g>
</g>
<g>
</g>
</svg>
