<?xml version="1.0" encoding="iso-8859-1"?>
<!-- Generator: Adobe Illustrator 19.0.0, SVG Export Plug-In . SVG Version: 6.00 Build 0)  -->
<svg version="1.1" id="Capa_1" xmlns="http://www.w3.org/2000/svg" xmlns:xlink="http://www.w3.org/1999/xlink" x="0px" y="0px"
	 viewBox="0 0 512 512" style="enable-background:new 0 0 512 512;" xml:space="preserve">
<rect x="129.75" y="10" style="fill:#FFFFFF;" width="252" height="80"/>
<path style="fill:#FF8095;" d="M376.98,464.85l0.12-0.03c23.54,1.38,50.62-8.79,64.65-22.82c-2.01-5.75-4-11.5-5.96-17.27
	c23.84,1.84,51.67-8.44,65.96-22.73L400.019,137.5H261.163c-50.555,0-95.888,31.135-114.036,78.32L66.723,424.871
	c3.035,0.127,6.041,0.086,8.987-0.141c-1.96,5.77-3.95,11.52-5.96,17.27c14.03,14.03,41.11,24.2,64.65,22.82l0.12,0.03
	c-1.58,5.9-3.16,11.79-4.77,17.68c38.94,12.98,82.47,19.47,126,19.47s87.06-6.49,126-19.47
	C380.14,476.64,378.56,470.75,376.98,464.85z"/>
<path d="M282,40c-5.52,0-10,4.48-10,10s4.48,10,10,10s10-4.48,10-10S287.52,40,282,40z"/>
<path d="M62.011,434.54c-0.471,1.353-0.952,2.735-1.45,4.16c-1.267,3.625-0.346,7.655,2.369,10.371
	c13.597,13.596,36.812,23.352,58.876,25.445c-0.485,1.792-0.961,3.586-1.451,5.377c-1.4,5.122,1.447,10.444,6.484,12.124
	C166.058,505.09,210.721,512,256,512c45.278,0,89.942-6.91,129.162-19.983c5.037-1.679,7.884-7.002,6.483-12.124
	c-0.49-1.792-0.965-3.585-1.45-5.377c22.063-2.093,45.28-11.849,58.876-25.444c2.715-2.715,3.636-6.746,2.369-10.371
	c-0.498-1.425-0.98-2.807-1.45-4.161c22.145-2.024,45.335-11.722,59.081-25.469c2.794-2.794,3.681-6.973,2.262-10.661L392,88.144V10
	c0-5.523-4.478-10-10-10H130c-5.523,0-10,4.477-10,10v78.143L0.667,398.41c-1.418,3.688-0.532,7.867,2.262,10.661
	C16.677,422.819,39.865,432.518,62.011,434.54z M85.233,428.521c0.141-0.345,0.258-0.701,0.36-1.064
	C122.339,319.59,151.735,207.891,189.134,99.9h26.006c-32.051,119.414-56.57,235.812-88.08,354.96
	c-16.11-0.76-33.804-6.955-45.406-15.921C82.937,435.239,84.119,431.796,85.233,428.521z M256,492
	c-39.716,0-78.855-5.551-113.841-16.103c0.759-2.82,1.516-5.643,2.273-8.47c32.795-122.95,58.156-244.289,91.417-367.427h40.303
	c33.093,122.5,58.882,245.516,91.418,367.436c0.756,2.823,1.512,5.643,2.271,8.462C334.855,486.449,295.715,492,256,492z
	 M384.941,454.863c-31.242-118.1-56.22-236.171-88.08-354.863h26.006c37.39,107.966,66.804,219.62,103.547,327.476
	c0.09,0.313,0.193,0.621,0.312,0.921c1.127,3.315,2.324,6.798,3.621,10.542C418.743,447.905,401.057,454.107,384.941,454.863z
	 M443.287,414.904c-35.201-104.25-63.376-210.223-99.27-314.904h31.115l115.027,299.069
	C478.177,408.196,459.619,414.471,443.287,414.904z M140,20h232v20h-50c-5.522,0-10,4.477-10,10s4.478,10,10,10h50v20H140V20z
	 M136.868,99.9h31.115c-35.898,104.694-64.076,210.774-99.269,315.004c-16.334-0.433-34.89-6.708-46.872-15.834L136.868,99.9z"/>
<g>
</g>
<g>
</g>
<g>
</g>
<g>
</g>
<g>
</g>
<g>
</g>
<g>
</g>
<g>
</g>
<g>
</g>
<g>
</g>
<g>
</g>
<g>
</g>
<g>
</g>
<g>
</g>
<g>
</g>
</svg>
