<?xml version="1.0" encoding="iso-8859-1"?>
<!-- Generator: Adobe Illustrator 19.0.0, SVG Export Plug-In . SVG Version: 6.00 Build 0)  -->
<svg version="1.1" id="Capa_1" xmlns="http://www.w3.org/2000/svg" xmlns:xlink="http://www.w3.org/1999/xlink" x="0px" y="0px"
	 viewBox="0 0 512 512" style="enable-background:new 0 0 512 512;" xml:space="preserve">
<g>
	<path style="fill:#3A426B;" d="M420.309,278.833c-32.851,3.353-59.445,27.807-65.999,59.593c-7.395,35.813,13.56,64.94,43.36,85.5
		c15.911,10.978,34.658,19.483,53.865,24.504c29.122-9.849,50.215-34.641,50.215-80.004
		C501.75,321.592,465.999,283.143,420.309,278.833z"/>
	<path style="fill:#3A426B;" d="M228.19,338.425c-5.803-28.143-27.318-50.536-54.973-57.629c-39.786,9.313-69.4,45.011-69.4,87.629
		c0,40.099,16.488,64.114,40.428,75.954c14.482-5.057,28.37-12.026,40.585-20.454C214.686,403.327,235.575,374.194,228.19,338.425z"
		/>
</g>
<path d="M412,308.425c-5.52,0-10,4.48-10,10s4.48,10,10,10s10-4.48,10-10S417.52,308.425,412,308.425z"/>
<path d="M100,308.425c-5.52,0-10,4.48-10,10s4.48,10,10,10s10-4.48,10-10S105.52,308.425,100,308.425z"/>
<path d="M60,368.425c0-10.098,3.794-19.751,10.683-27.181c3.755-4.05,3.516-10.377-0.534-14.132
	c-4.049-3.754-10.376-3.516-14.132,0.534C45.688,338.786,40,353.268,40,368.425c0,15.994,6.245,31.055,17.585,42.407
	c3.9,3.905,10.232,3.913,14.142,0.007c3.907-3.903,3.911-10.234,0.007-14.142C64.167,389.122,60,379.082,60,368.425z"/>
<path d="M441.851,327.112c-4.05,3.755-4.289,10.083-0.534,14.132c6.889,7.43,10.683,17.083,10.683,27.181
	c0,10.656-4.167,20.697-11.735,28.272c-3.903,3.908-3.9,10.239,0.007,14.142c3.905,3.901,10.237,3.902,14.142-0.007
	C465.755,399.48,472,384.42,472,368.425c0-15.157-5.688-29.64-16.017-40.779C452.228,323.597,445.901,323.359,441.851,327.112z"/>
<path d="M447.547,50.105c-4.595-3.064-10.804-1.823-13.868,2.773c-3.063,4.595-1.822,10.804,2.773,13.868
	C471.234,89.937,492,128.737,492,170.535v137.862c-18.72-24.835-47.753-39.972-80-39.972c-75.711,0-230.097,0-312,0
	c-32.324,0-61.326,15.2-80,39.973V170.535c0-41.798,20.766-80.598,55.547-103.79c4.595-3.064,5.836-9.273,2.773-13.868
	c-3.064-4.595-9.273-5.836-13.868-2.773C24.094,77.015,0,122.035,0,170.535v197.89c0,70.911,49.922,104.122,117.814,93.067
	c25.683-4.183,51.588-14.601,72.945-29.336c28.711-19.809,51.203-49.178,49.058-83.831h32.366
	c-2.159,34.867,20.605,64.2,49.058,83.831c21.356,14.735,47.262,25.153,72.945,29.336C460.16,472.237,512,441.028,512,368.425
	v-197.89C512,122.035,487.906,77.015,447.547,50.105z M302.552,288.425c-12.332,10.327-21.779,24.097-26.716,40h-39.671
	c-4.938-15.903-14.384-29.673-26.716-40H302.552z M179.401,415.695c-18.968,13.087-41.981,22.342-64.801,26.058
	C60.251,450.606,20,428.001,20,368.425c0-44.211,35.762-80,80-80c15.884,0,38.319,0,54.728,0
	c30.813,0.008,57.686,21.871,63.912,51.991c0.004,0.017,0.007,0.035,0.011,0.052C225.137,371.943,205.734,397.526,179.401,415.695z
	 M397.4,441.752c-22.82-3.716-45.833-12.97-64.801-26.058c-26.35-18.18-45.733-43.762-39.249-75.226
	c0.004-0.017,0.007-0.035,0.011-0.052c6.225-30.119,33.099-51.982,63.912-51.99c11.358,0,43.395,0,54.728,0
	c44.211,0,80,35.762,80,80C492,427.718,451.794,450.609,397.4,441.752z"/>
<g>
</g>
<g>
</g>
<g>
</g>
<g>
</g>
<g>
</g>
<g>
</g>
<g>
</g>
<g>
</g>
<g>
</g>
<g>
</g>
<g>
</g>
<g>
</g>
<g>
</g>
<g>
</g>
<g>
</g>
</svg>
