<?xml version="1.0" encoding="iso-8859-1"?>
<!-- Generator: Adobe Illustrator 19.0.0, SVG Export Plug-In . SVG Version: 6.00 Build 0)  -->
<svg version="1.1" id="Capa_1" xmlns="http://www.w3.org/2000/svg" xmlns:xlink="http://www.w3.org/1999/xlink" x="0px" y="0px"
	 viewBox="0 0 512 512" style="enable-background:new 0 0 512 512;" xml:space="preserve">
<g>
	<polygon style="fill:#7EC2DB;" points="171.751,302.74 164.098,348.661 180.751,342 263.101,210.24 265.251,199.5 269.785,176.833 
			"/>
	<polygon style="fill:#7EC2DB;" points="357.951,308 357.801,308.09 286.85,347.503 278.751,388 305.891,415.14 372.031,378.398 	
		"/>
	<polygon style="fill:#7EC2DB;" points="360.751,10 281.751,10 321.251,120.6 	"/>
</g>
<g>
	<polygon style="fill:#FFFFFF;" points="343.701,236.73 247.251,289.5 229.251,379.5 357.801,308.09 357.951,308 	"/>
	<polygon style="fill:#FFFFFF;" points="380.751,422 300.751,502 247.891,449.14 372.351,380 	"/>
	<polygon style="fill:#FFFFFF;" points="329.151,164 265.251,199.5 280.701,122.26 280.901,122 320.751,122 	"/>
</g>
<polygon style="fill:#7EC2DB;" points="343.701,236.73 330.277,169.625 305.301,183.5 303.151,194.24 288.629,266.861 "/>
<path d="M301.001,350c5.52,0,10-4.48,10-10c0-5.484-4.456-10-10-10c-5.52,0-10,4.48-10,10C291.001,345.501,295.462,350,301.001,350z
	"/>
<path d="M213.93,429.071c8.265,8.265,73.171,73.171,80,80c1.953,1.952,4.512,2.929,7.071,2.929s5.118-0.977,7.071-2.929l80-80
	c2.364-2.364,3.391-5.754,2.734-9.032c-2.492-12.46-59.457-297.285-59.457-297.285l39.068-109.391
	c1.094-3.063,0.631-6.466-1.243-9.124C367.302,1.581,364.253,0,361.001,0h-120c-3.252,0-6.301,1.581-8.174,4.239
	c-1.874,2.658-2.337,6.062-1.243,9.124l38.201,106.962L133.11,295.856c-1.021,1.313-1.7,2.859-1.974,4.5l-10,60
	c-0.594,3.563,0.78,7.169,3.594,9.434c2.815,2.266,6.633,2.835,9.984,1.495l50-20c1.972-0.789,3.641-2.185,4.767-3.985l53.325-85.32
	l-31.611,158.06C210.539,423.317,211.566,426.707,213.93,429.071z M289.201,132h23.602l5.362,26.808l-38.618,21.451L289.201,132z
	 M274.398,205.997l47.884-26.602l10.282,51.411l-71.019,39.454C261.711,269.434,272.147,217.252,274.398,205.997z M238.4,385.996
	l32.402-18.001c4.828-2.682,6.567-8.77,3.885-13.598c-2.682-4.829-8.771-6.565-13.598-3.885l-17.542,9.746l12.851-64.261
	l80.284-44.601l10.282,51.408l-15.951,8.862c-4.828,2.682-6.567,8.771-3.885,13.598c2.681,4.827,8.768,6.568,13.598,3.885
	l10.356-5.754l10.282,51.408l-111.485,61.932l-18.022-18.022L238.4,385.996z M301.001,487.857l-36.414-36.414l100.895-56.049
	l4.664,23.318L301.001,487.857z M346.811,20l-32.856,92h-25.906l-32.856-92H346.811z M174.253,333.929l-30.467,12.187l6.662-39.972
	L262.845,161.79l-8.942,44.698L174.253,333.929z"/>
<g>
</g>
<g>
</g>
<g>
</g>
<g>
</g>
<g>
</g>
<g>
</g>
<g>
</g>
<g>
</g>
<g>
</g>
<g>
</g>
<g>
</g>
<g>
</g>
<g>
</g>
<g>
</g>
<g>
</g>
</svg>
