<svg xmlns="http://www.w3.org/2000/svg" version="1.1" xmlns:xlink="http://www.w3.org/1999/xlink" xmlns:svgjs="http://svgjs.com/svgjs" width="512" height="512" x="0" y="0" viewBox="0 0 512 512" style="enable-background:new 0 0 512 512" xml:space="preserve" class=""><g>
    <g xmlns="http://www.w3.org/2000/svg">
    	<g>
    		<path d="M386.062,0H125.938c-25.077,0-45.479,20.403-45.479,45.48v388.16c0,25.077,20.402,45.48,45.479,45.48h5.649v17.747    c0,8.357,6.776,15.133,15.133,15.133c8.357,0,15.133-6.776,15.133-15.133V479.12h188.301v17.747    c0,8.357,6.776,15.133,15.133,15.133c8.357,0,15.133-6.776,15.133-15.133V479.12h5.643c25.077,0,45.479-20.403,45.479-45.48V45.48    C431.541,20.403,411.139,0,386.062,0z M110.724,45.48c0-8.389,6.825-15.215,15.214-15.215H240.87v326.62H110.724V45.48z     M401.276,433.64c0,8.389-6.825,15.215-15.214,15.215H125.938c-8.389,0-15.214-6.826-15.214-15.215v-46.488h290.551V433.64z     M401.276,356.886h-130.14V30.266h114.926c8.389,0,15.214,6.826,15.214,15.215V356.886z" fill="#818181" data-original="#000000" class=""></path>
    	</g>
    </g>
    <g xmlns="http://www.w3.org/2000/svg">
    	<g>
    		<path d="M215.82,157.453c-8.357,0-15.133,6.776-15.133,15.133v41.98c0,8.357,6.775,15.133,15.133,15.133    c8.357,0,15.133-6.776,15.133-15.133v-41.98C230.953,164.228,224.178,157.453,215.82,157.453z" fill="#818181" data-original="#000000" class=""></path>
    	</g>
    </g>
    <g xmlns="http://www.w3.org/2000/svg">
    	<g>
    		<path d="M296.186,157.453c-8.357,0-15.133,6.776-15.133,15.133v41.98c0,8.358,6.776,15.134,15.133,15.134    c8.357,0,15.133-6.776,15.133-15.133v-41.981C311.319,164.228,304.543,157.453,296.186,157.453z" fill="#818181" data-original="#000000" class=""></path>
    	</g>
    </g>
    <g xmlns="http://www.w3.org/2000/svg">
    	<g>
    		<path d="M273.151,402.87h-34.301c-8.357,0-15.133,6.776-15.133,15.133c0,8.357,6.776,15.133,15.133,15.133h34.301    c8.357,0,15.133-6.776,15.133-15.133C288.283,409.645,281.508,402.87,273.151,402.87z" fill="#818181" data-original="#000000" class=""></path>
    	</g>
    </g>
    <g xmlns="http://www.w3.org/2000/svg">
    </g>
    <g xmlns="http://www.w3.org/2000/svg">
    </g>
    <g xmlns="http://www.w3.org/2000/svg">
    </g>
    <g xmlns="http://www.w3.org/2000/svg">
    </g>
    <g xmlns="http://www.w3.org/2000/svg">
    </g>
    <g xmlns="http://www.w3.org/2000/svg">
    </g>
    <g xmlns="http://www.w3.org/2000/svg">
    </g>
    <g xmlns="http://www.w3.org/2000/svg">
    </g>
    <g xmlns="http://www.w3.org/2000/svg">
    </g>
    <g xmlns="http://www.w3.org/2000/svg">
    </g>
    <g xmlns="http://www.w3.org/2000/svg">
    </g>
    <g xmlns="http://www.w3.org/2000/svg">
    </g>
    <g xmlns="http://www.w3.org/2000/svg">
    </g>
    <g xmlns="http://www.w3.org/2000/svg">
    </g>
    <g xmlns="http://www.w3.org/2000/svg">
    </g>
    </g></svg>