<?xml version="1.0" encoding="iso-8859-1"?>
<!-- Generator: Adobe Illustrator 19.0.0, SVG Export Plug-In . SVG Version: 6.00 Build 0)  -->
<svg version="1.1" id="Capa_1" xmlns="http://www.w3.org/2000/svg" xmlns:xlink="http://www.w3.org/1999/xlink" x="0px" y="0px"
	 viewBox="0 0 512 512" style="enable-background:new 0 0 512 512;" xml:space="preserve">
<g>
	<path style="fill:#FFBF4E;" d="M141.477,216h-25.8c-11.05,0-20,8.95-20,20v40c0,11.05,8.95,20,20,20h25.69L141.477,216z"/>
	<path style="fill:#FFBF4E;" d="M197.677,217.759c0.155-0.534,0.327-1.062,0.488-1.594V216
		C197.992,216.583,197.843,217.173,197.677,217.759z"/>
	<path style="fill:#FFBF4E;" d="M378.467,439.29l19.04-114.26c26.011-45.794,22.733-97.666-0.369-138.287L378.467,72.71
		c-1.61-9.64-9.96-16.71-19.73-16.71H249.306c-9.77,0-18.12,7.07-19.73,16.71l-18.645,113.873
		c-5.344,9.33-9.64,19.256-12.766,29.582L198.056,296c2.972,9.812,7.092,19.538,12.48,29.03l19.04,114.26
		c1.61,9.64,9.96,16.71,19.73,16.71h109.432C368.507,456,376.857,448.93,378.467,439.29z"/>
</g>
<path style="fill:#FFFFFF;" d="M335.677,502h-120c0-15.57,0-49.005,0-66h120C335.677,452.995,335.677,486.431,335.677,502z"/>
<path style="fill:#B3674A;" d="M335.677,502h-71c0-15.57,0-49.005,0-66h71C335.677,452.995,335.677,486.431,335.677,502z"/>
<path style="fill:#FFFFFF;" d="M335.677,76h-120c0-16.995,0-50.431,0-66h120C335.677,25.57,335.677,59.005,335.677,76z"/>
<path style="fill:#B3674A;" d="M335.677,76h-71c0-16.995,0-50.431,0-66h71C335.677,25.57,335.677,59.005,335.677,76z"/>
<path style="fill:#FFFFFF;" d="M216.344,265.99v-19.98c4.559-46.106,39.108-79.656,79.755-88.131
	c-55.591-11.722-113.892,27.255-119.911,88.131v19.98c2.805,28.118,17.459,54.757,43.75,73c0.42,0,17.639,13.702,45.72,16.51
	c11.031,1.131,21.434,0.595,31.115-1.331c-22.69-4.391-36.306-15.179-36.678-15.179C233.803,320.747,219.149,294.108,216.344,265.99
	z"/>
<path style="fill:#3A426B;" d="M335.507,175.92c-12.442-9.317-25.845-15.181-39.409-18.041
	c-40.647,8.475-75.196,42.026-79.755,88.131v19.98c2.805,28.118,17.459,54.757,43.75,73c0.373,0,13.988,10.789,36.678,15.179
	C376.045,338.397,406.775,229.231,335.507,175.92z"/>
<path d="M176.437,265.99c12.567-0.641,12.575-19.338,0-19.98C162.565,245.194,162.553,266.807,176.437,265.99z"/>
<path d="M407.429,184.171L388.581,71.063C386.155,56.54,373.708,46,358.987,46h-13.06V10c0-5.523-4.478-10-10-10h-120
	c-5.522,0-10,4.477-10,10v36h-13.06c-14.722,0-27.168,10.54-29.595,25.066l-18.817,112.92c-3.938,7.157-7.251,14.516-9.948,22.014
	h-18.581c-16.542,0-30,13.458-30,30v40c0,16.542,13.458,30,30,30h18.484c2.725,7.611,6.092,15.077,10.099,22.336l18.764,112.601
	C165.7,455.46,178.146,466,192.868,466h13.06v36c0,5.523,4.478,10,10,10h120c5.522,0,10-4.477,10-10v-36h13.06
	c14.722,0,27.168-10.54,29.595-25.066l18.763-112.596C432.307,283.131,432.301,229.689,407.429,184.171z M163.605,190.725
	C187.202,150.196,229.192,126,275.927,126c46.7,0,88.617,24.114,112.127,64.506c23.646,40.623,24.022,89.066,1.008,129.584l0,0
	c-23.419,41.234-65.725,65.851-113.165,65.851C175.414,385.942,113.211,277.279,163.605,190.725z M225.927,20h100v46h-100V20z
	 M183,74.357c0.809-4.843,4.959-8.357,9.867-8.357h13.06v10c0,5.523,4.478,10,10,10h120c5.522,0,10-4.477,10-10V66h13.06
	c4.908,0,9.059,3.515,9.866,8.354l12.477,74.874C353.743,121.686,316.392,106,275.927,106c-40.425,0-77.768,15.68-105.401,43.219
	L183,74.357z M115.927,286c-5.514,0-10-4.486-10-10v-40c0-5.514,4.486-10.1,10-10.1h12.907c-4.145,19.819-4.155,40.28-0.048,60.1
	H115.927z M325.927,492h-100v-46h100V492z M368.854,437.643c-0.809,4.843-4.959,8.357-9.867,8.357h-13.06v-10
	c0-5.523-4.478-10-10-10h-120c-5.522,0-10,4.477-10,10v10h-13.06c-4.908,0-9.059-3.515-9.866-8.354l-12.448-74.704
	c27.583,27.408,64.837,43,105.344,43c40.537,0,77.814-15.594,105.406-43.006L368.854,437.643z"/>
<path d="M276.991,366.072C342.115,366.068,386.9,311.57,385.883,253c-1.04-59.917-52.173-108.445-111.956-107.1
	c-41.747,0.939-81.518,25.572-99.196,66.973c-2.169,5.079,0.19,10.955,5.27,13.124c5.08,2.17,10.956-0.191,13.123-5.27
	c14.409-33.744,47.143-54.331,81.804-54.8c48.374-0.655,90.575,38.604,90.988,88.073c0.395,47.411-36.656,93.349-90.988,92.059
	c-37.17-0.882-68.164-22.902-81.806-54.792c-2.173-5.077-8.049-7.435-13.127-5.261c-5.078,2.172-7.434,8.049-5.262,13.127
	C191.005,337.168,229.046,366.072,276.991,366.072z"/>
<path d="M275.927,186c-5.522,0-10,4.477-10,10v60c0,5.523,4.478,10,10,10h40c5.522,0,10-4.477,10-10s-4.478-10-10-10h-30v-50
	C285.927,190.477,281.45,186,275.927,186z"/>
<g>
</g>
<g>
</g>
<g>
</g>
<g>
</g>
<g>
</g>
<g>
</g>
<g>
</g>
<g>
</g>
<g>
</g>
<g>
</g>
<g>
</g>
<g>
</g>
<g>
</g>
<g>
</g>
<g>
</g>
</svg>
