<?xml version="1.0" encoding="iso-8859-1"?>
<!-- Generator: Adobe Illustrator 19.0.0, SVG Export Plug-In . SVG Version: 6.00 Build 0)  -->
<svg version="1.1" id="Capa_1" xmlns="http://www.w3.org/2000/svg" xmlns:xlink="http://www.w3.org/1999/xlink" x="0px" y="0px"
	 viewBox="0 0 511.999 511.999" style="enable-background:new 0 0 511.999 511.999;" xml:space="preserve">
<path style="fill:#FF8095;" d="M501.906,453.648c-5.24-55.047-29.288-111.604-65.376-155.721
	c12.439-17.219,21.059-37.368,24.629-59.217c1.95-11.949-7.8-22.709-19.909-22.709c-4.137,0-186.136,0-293.488,0
	c-12.109,0-21.859,10.759-19.909,22.709c3.57,21.849,12.189,41.998,24.629,59.217c-36.088,44.118-60.137,100.674-65.376,155.721
	c-1.14,11.919,8,22.339,19.969,22.339h374.863C493.906,475.987,503.046,465.568,501.906,453.648z"/>
<path style="fill:#FFBF4E;" d="M275.998,395.991H236c0-9.678,0-70.254,0-79.996h39.998
	C275.998,325.674,275.998,386.25,275.998,395.991z"/>
<path d="M176.003,265.999c5.52,0,9.999-4.48,9.999-9.999s-4.48-9.999-9.999-9.999s-9.999,4.48-9.999,9.999
	S170.484,265.999,176.003,265.999z"/>
<path d="M511.86,452.701c-5.147-54.065-27.977-110.214-62.924-155.23c11.178-17.286,18.78-36.889,22.091-57.151
	c1.373-8.41-1.054-17.014-6.658-23.606c-5.787-6.809-14.214-10.712-23.12-10.712h-75.256v-69.996
	c0-60.78-49.173-109.994-109.994-109.994c-60.651,0-109.994,49.343-109.994,109.994v69.996H70.75
	c-18.389,0-32.704,16.392-29.777,34.32c3.311,20.26,10.911,39.862,22.09,57.149C28.117,342.487,5.286,398.636,0.139,452.696
	c-0.82,8.587,2.014,17.147,7.777,23.487c5.663,6.23,13.734,9.803,22.146,9.803h451.875c8.412,0,16.483-3.573,22.146-9.803
	C509.846,469.844,512.68,461.283,511.86,452.701z M166.004,136.006c0-49.623,40.372-89.995,89.995-89.995
	c49.729,0,89.995,40.234,89.995,89.995v69.996h-179.99V136.006z M70.749,226.001h370.5c3.029,0,5.902,1.336,7.883,3.666
	c1.057,1.243,2.741,3.86,2.158,7.432c-10.236,62.652-64.745,108.896-128.294,108.896h-36.998v-29.998
	c0-5.522-4.478-9.999-9.999-9.999H236c-5.522,0-9.999,4.478-9.999,9.999v29.998h-36.998c-41.609,0-81.022-20.159-105.429-53.924
	c-11.736-16.245-19.644-35.255-22.865-54.971C59.756,231.257,64.786,226.001,70.749,226.001z M246,325.995h19.999v59.997H246
	V325.995z M489.284,462.732c-1.908,2.1-4.518,3.256-7.348,3.256H30.061c-2.83,0-5.439-1.156-7.348-3.256
	c-1.981-2.179-2.953-5.144-2.667-8.137c4.631-48.656,24.694-99.194,55.492-140.499c28.346,32.708,69.857,51.897,113.464,51.897
	h36.998v29.998c0,5.522,4.478,9.999,9.999,9.999h39.998c5.522,0,9.999-4.478,9.999-9.999v-29.998h36.998
	c43.606,0,85.116-19.188,113.463-51.897c30.799,41.306,50.861,91.844,55.492,140.504
	C492.237,457.589,491.265,460.554,489.284,462.732z"/>
<path d="M216.001,265.999h119.993c5.522,0,9.999-4.478,9.999-9.999c0-5.522-4.478-9.999-9.999-9.999H216.001
	c-5.522,0-9.999,4.478-9.999,9.999C206.002,261.522,210.48,265.999,216.001,265.999z"/>
<g>
</g>
<g>
</g>
<g>
</g>
<g>
</g>
<g>
</g>
<g>
</g>
<g>
</g>
<g>
</g>
<g>
</g>
<g>
</g>
<g>
</g>
<g>
</g>
<g>
</g>
<g>
</g>
<g>
</g>
</svg>
