<?xml version="1.0" encoding="iso-8859-1"?>
<!-- Generator: Adobe Illustrator 19.0.0, SVG Export Plug-In . SVG Version: 6.00 Build 0)  -->
<svg version="1.1" id="Capa_1" xmlns="http://www.w3.org/2000/svg" xmlns:xlink="http://www.w3.org/1999/xlink" x="0px" y="0px"
	 viewBox="0 0 512.001 512.001" style="enable-background:new 0 0 512.001 512.001;" xml:space="preserve">
<path style="fill:#F5665D;" d="M376,50.002l-47.72-19.29h-91.559l-47.72,19.29v164.999v15l-8.57,60
	c-2.492,20.678-11.43,64.379-11.43,127.429v84.569c73.609,0,181.84,0,226.998,0v-84.569c0-58.902-6.381-92.076-20-187.429v-15
	L441.999,360l4.306-2.153l38.868-19.434L501.999,330L376,50.002z"/>
<g>
	<path style="fill:#FFFFFF;" d="M336,53.952c0-32.116-32.726-38.629-40-43.95h-79.999c-7.297,5.338-40,11.824-40,43.95
		c0,24.64,20.63,33.89,40,56.05h-40c11.2,33.59,32.5,62.75,60.8,83.589l-20.8,36.41l45.77-27.46c34.99-21,61.32-53.82,74.229-92.539
		h-40C315.37,87.842,336,78.592,336,53.952z"/>
	<path style="fill:#FFFFFF;" d="M216.001,10.002c0,52.42,13.68,103.939,39.69,149.459l0.31,0.54l0.31-0.54
		c5.443-9.527,10.339-19.319,14.69-29.324c-16.439-37.803-25-78.685-25-120.135C246.001,10.002,216.001,10.002,216.001,10.002z"/>
</g>
<path style="fill:#3A426B;" d="M246.001,10.002c0,41.449,8.561,82.332,25,120.135c16.439-37.803,25-78.685,25-120.135
	C296,10.002,246.001,10.002,246.001,10.002z"/>
<path d="M256.001,280c-5.52,0-10,4.48-10,10c0,5.52,4.48,10,10,10s10-4.48,10-10C266,284.48,261.521,280,256.001,280z"/>
<path d="M256.001,340c-5.52,0-10,4.48-10,10c0,5.52,4.48,10,10,10s10-4.48,10-10C266,344.48,261.521,340,256.001,340z"/>
<path d="M256.001,399.999c-5.52,0-10,4.48-10,10c0,5.52,4.48,10,10,10s10-4.48,10-10C266,404.479,261.521,399.999,256.001,399.999z"
	/>
<path d="M506.471,338.944c4.798-2.399,6.849-8.156,4.647-13.048L385.119,45.898c-0.012-0.027-0.027-0.051-0.04-0.077
	c-1.057-2.291-2.956-4.13-5.332-5.091l-45.434-18.365c-2.781-3.126-6.025-5.975-9.872-8.648c-6.177-4.288-12.599-7.161-17.287-9.259
	c-7.939-3.556-7.572-4.456-11.155-4.456H216c-0.14,0-0.277,0.015-0.415,0.021c-2.023,0.085-3.792,0.71-5.368,1.831
	c-0.035,0.025-0.073,0.043-0.108,0.068c-0.725,0.505-3.351,1.681-5.269,2.539c-7.535,3.374-18.661,8.36-27.157,17.904l-45.43,18.365
	c-2.313,0.935-4.251,2.744-5.332,5.091c-0.012,0.026-0.028,0.051-0.04,0.077L0.883,325.896c-2.201,4.892-0.15,10.648,4.647,13.048
	l60,30c5.035,2.517,11.212,0.386,13.573-4.802l40.276-88.483l-6.567,45.976C108.44,352.201,106,384.519,106,417.429v84.569
	c0,5.522,4.478,10,10,10c12.797,0,268.178,0,279.998,0c5.522,0,10-4.478,10-10v-84.569c0-34.363-2.699-67.04-6.811-95.793
	l-6.567-45.978l40.276,88.484c2.359,5.183,8.535,7.321,13.573,4.802L506.471,338.944z M313.033,30.142
	c2.666,1.853,4.842,3.769,6.632,5.841c0.371,0.587,0.799,1.14,1.289,1.643c3.38,4.563,5.046,9.907,5.046,16.326
	c0,12.589-6.941,19.657-20.244,32.08c-3.905,3.646-8.192,7.65-12.542,12.206c6.95-23.521,11.128-47.853,12.383-72.437
	C308.082,27.05,310.635,28.478,313.033,30.142z M256.001,138.724c-18.197-36.958-28.4-77.609-29.824-118.822h59.647
	C284.4,61.118,274.196,101.772,256.001,138.724z M224.41,115.413c5.507,15.312,12.231,30.206,20.105,44.533l-10.623,18.591
	c-18.827-15.981-33.584-35.895-43.377-58.536H216C219.433,120.001,222.588,118.245,224.41,115.413z M287.592,115.414
	c1.821,2.831,4.977,4.487,8.408,4.487h25.473c-25.202,58.061-71.533,76.872-77.813,81.843
	C259.422,172.836,274.187,152.685,287.592,115.414z M206.404,25.804c1.256,24.586,5.433,48.912,12.384,72.434
	c-4.35-4.555-8.638-8.559-12.543-12.206c-13.303-12.423-20.244-19.491-20.244-32.08C186.001,40.024,193.915,32.094,206.404,25.804z
	 M65.197,346.417L23.06,325.348L126.002,96.592v116.24L65.197,346.417z M136.104,300H166v50c0,24.042-17.075,44.182-39.729,48.935
	c0.702-24.909,2.825-49.908,6.338-74.47L136.104,300z M126.002,419.271c33.873-4.873,60-34.085,60-69.271v-60
	c0-5.522-4.478-10-10-10h-37.04c7.287-51.261,7.04-48.678,7.04-50V56.746l20.274-8.196c-0.177,1.765-0.274,3.563-0.274,5.402
	c0,21.493,12.484,33.515,25.9,46.05h-15.9c-3.215,0-6.233,1.545-8.112,4.153c-1.88,2.607-2.391,5.96-1.374,9.01
	c10.934,32.794,30.664,61.317,57.302,83.004l-16.498,28.872c-0.015,0.026-0.027,0.053-0.041,0.08
	c-0.793,1.415-1.256,3.057-1.271,4.785c0,0.032-0.005,0.063-0.005,0.095v261.998h-79.999v-72.727H126.002z M226.001,491.999V235.663
	l40.915-24.548c37.014-22.214,64.918-57.001,78.57-97.95c1.017-3.05,0.506-6.402-1.374-9.01c-1.879-2.608-4.897-4.153-8.112-4.153
	h-15.9c13.416-12.535,25.9-24.557,25.9-46.05c0-1.839-0.098-3.638-0.274-5.403L366,56.746v173.255c0,0.474,0.033,0.945,0.101,1.414
	L373.04,280H336c-5.522,0-10,4.478-10,10v60c0,35.185,26.124,64.395,60,69.27v72.728H226.001z M379.39,324.466
	c3.511,24.55,5.634,49.537,6.336,74.466c-22.656-4.755-39.727-24.894-39.727-48.933v-50h29.896L379.39,324.466z M386,212.832V96.592
	l102.94,228.756l-42.137,21.068L386,212.832z"/>
<g>
</g>
<g>
</g>
<g>
</g>
<g>
</g>
<g>
</g>
<g>
</g>
<g>
</g>
<g>
</g>
<g>
</g>
<g>
</g>
<g>
</g>
<g>
</g>
<g>
</g>
<g>
</g>
<g>
</g>
</svg>
