<svg width="240" height="300" viewBox="0 0 240 300" fill="none" xmlns="http://www.w3.org/2000/svg">
<path d="M239.362 180.321C239.362 246.418 185.774 300 119.679 300C103.464 300 88.0077 296.776 73.9094 290.933C35.3761 274.971 6.99356 239.459 1.12584 196.77C0.379997 191.394 0 185.902 0 180.321C0 114.22 53.5816 60.6383 119.679 60.6383C185.774 60.6383 239.362 114.22 239.362 180.321Z" fill="white"/>
<path d="M119.668 60.6383C113.339 60.6383 107.128 61.1335 101.066 62.0795C158.33 71.0155 202.149 120.546 202.149 180.321C202.149 240.088 158.335 289.617 101.074 298.557C107.134 299.503 113.341 300 119.666 300C185.763 300 239.351 246.418 239.351 180.321C239.351 114.22 185.763 60.6383 119.668 60.6383V60.6383Z" fill="#E9E9E9"/>
<path d="M208.531 58.2468L181.263 93.6851L176.599 87.966C175.687 86.8648 174.183 86.4512 172.836 86.9307C171.489 87.4103 170.585 88.6807 170.574 90.1106V129.362H124.616C118.049 129.393 112.733 134.709 112.701 141.277C112.701 147.857 118.036 153.192 124.616 153.192C118.049 153.223 112.733 158.539 112.701 165.106C112.701 171.687 118.036 177.021 124.616 177.021C121.457 177.015 118.427 178.278 116.208 180.528C115.242 181.478 114.457 182.597 113.893 183.83H68.446V162.723C68.48 163.166 68.48 163.404 68.48 163.404C68.48 163.404 68.48 136.17 92.2758 136.17C68.48 136.17 68.48 108.936 68.48 108.936C68.48 108.936 68.48 109.174 68.446 109.617V90.1106C68.4345 88.6807 67.5306 87.4103 66.1834 86.9307C64.8361 86.4512 63.3328 86.8648 62.4204 87.966L57.7566 93.6851L30.4885 58.2468L52.8885 27.7107C56.4131 22.9234 61.0211 19.0388 66.3353 16.3745L76.2758 11.4043C80.5992 28.2213 98.3353 40.8511 119.51 40.8511C140.684 40.8511 158.42 28.2213 162.744 11.4043L172.684 16.3745C177.999 19.0388 182.607 22.9234 186.131 27.7107L208.531 58.2468Z" fill="#EF314C"/>
<path d="M166.387 87.966C165.474 86.8648 163.971 86.4512 162.624 86.9307C161.276 87.4103 160.373 88.6806 160.361 90.1106V129.362H170.574V93.0996L166.387 87.966Z" fill="#BB193B"/>
<path d="M124.616 129.362H114.403C107.836 129.393 102.52 134.709 102.489 141.277C102.489 147.857 107.823 153.191 114.403 153.191C107.836 153.223 102.52 158.539 102.489 165.106C102.489 171.687 107.823 177.021 114.403 177.021C111.244 177.015 108.214 178.278 105.995 180.528C105.029 181.478 104.244 182.597 103.68 183.83H113.893C114.457 182.597 115.242 181.478 116.208 180.528C118.427 178.278 121.456 177.015 124.616 177.021C121.456 177.021 118.426 175.766 116.191 173.531C113.957 171.297 112.701 168.266 112.701 165.106C112.733 158.539 118.049 153.223 124.616 153.191C121.456 153.191 118.426 151.936 116.191 149.702C113.957 147.467 112.701 144.437 112.701 141.277C112.733 134.709 118.049 129.393 124.616 129.362Z" fill="#BB193B"/>
<path d="M214.965 75.5745L196.242 98.9617C194.955 100.561 193.017 101.497 190.964 101.511C188.912 101.524 186.962 100.613 185.655 99.0298L181.263 93.6851L208.531 58.2468L215.136 67.2681C216.97 69.7547 216.901 73.1652 214.965 75.5745Z" fill="#CFD8DC"/>
<path d="M162.744 11.4043C158.421 28.2213 140.684 40.8511 119.51 40.8511C98.3355 40.8511 80.5993 28.2213 76.2759 11.4043L87.9525 5.54894C88.2929 5.37872 88.6333 5.24255 88.9738 5.10638C90.0631 17.4979 103.34 27.234 119.51 27.234C135.68 27.234 148.957 17.4979 150.046 5.10638C150.387 5.24255 150.727 5.37872 151.067 5.54894L162.744 11.4043Z" fill="#F5F5F5"/>
<path d="M150.046 5.10639C148.957 17.4979 135.68 27.234 119.51 27.234C103.34 27.234 90.0632 17.4979 88.9739 5.10639C91.5382 3.9797 94.3092 3.39999 97.11 3.40426H141.91C144.711 3.39999 147.482 3.9797 150.046 5.10639Z" fill="#BB193B"/>
<path d="M57.7569 93.6851L53.3654 99.0298C52.0584 100.613 50.1085 101.524 48.0556 101.511C46.0028 101.497 44.0648 100.561 42.7782 98.9617L24.0548 75.5745C22.1195 73.1652 22.0497 69.7547 23.8846 67.2681L30.4888 58.2468L57.7569 93.6851Z" fill="#F5F5F5"/>
<path d="M124.616 200.851H75.2546C71.499 200.84 68.4573 197.798 68.446 194.043V183.83H113.893C113.096 185.413 112.688 187.164 112.701 188.936C112.701 192.096 113.957 195.127 116.191 197.361C118.426 199.596 121.456 200.851 124.616 200.851Z" fill="#F5F5F5"/>
<path d="M112.702 188.936C112.688 187.164 113.096 185.413 113.893 183.83H103.68C102.883 185.413 102.475 187.164 102.489 188.936C102.489 192.096 103.744 195.127 105.979 197.361C108.213 199.596 111.244 200.851 114.404 200.851H124.617C121.456 200.851 118.426 199.596 116.191 197.361C113.957 195.127 112.702 192.096 112.702 188.936Z" fill="#CFD8DC"/>
<path d="M218.233 188.936C218.202 195.503 212.886 200.819 206.318 200.851H124.616C121.456 200.851 118.426 199.596 116.191 197.361C113.957 195.127 112.701 192.096 112.701 188.936C112.742 185.786 113.998 182.773 116.208 180.528C118.427 178.278 121.457 177.015 124.616 177.021H206.318C209.478 177.021 212.509 178.277 214.744 180.511C216.978 182.746 218.233 185.776 218.233 188.936Z" fill="#9D27B0"/>
<path d="M206.318 177.021H196.106C202.686 177.021 208.021 182.356 208.021 188.936C207.989 195.503 202.673 200.819 196.106 200.851H206.318C212.886 200.819 218.202 195.503 218.233 188.936C218.233 185.776 216.978 182.746 214.744 180.511C212.509 178.277 209.479 177.021 206.318 177.021Z" fill="#6A1B9A"/>
<path d="M218.233 165.106C218.202 171.674 212.886 176.99 206.318 177.021H124.616C121.456 177.021 118.426 175.766 116.191 173.531C113.957 171.297 112.701 168.266 112.701 165.106C112.733 158.539 118.049 153.223 124.616 153.191H206.318C212.899 153.191 218.233 158.526 218.233 165.106Z" fill="#60A917"/>
<path d="M206.318 153.191H196.106C202.686 153.191 208.021 158.526 208.021 165.106C207.989 171.674 202.673 176.99 196.106 177.021H206.318C212.886 176.99 218.202 171.674 218.233 165.106C218.233 161.946 216.978 158.916 214.744 156.681C212.509 154.447 209.479 153.191 206.318 153.191Z" fill="#549414"/>
<path d="M218.233 141.277C218.202 147.844 212.886 153.16 206.318 153.191H124.616C121.456 153.191 118.426 151.936 116.191 149.702C113.957 147.467 112.701 144.437 112.701 141.277C112.733 134.709 118.049 129.393 124.616 129.362H206.318C212.899 129.362 218.233 134.696 218.233 141.277Z" fill="#02A9F4"/>
<path d="M206.318 129.362H196.106C202.686 129.362 208.021 134.696 208.021 141.277C207.989 147.844 202.673 153.16 196.106 153.191H206.318C212.886 153.16 218.202 147.844 218.233 141.277C218.233 138.117 216.978 135.086 214.744 132.851C212.509 130.617 209.479 129.362 206.318 129.362Z" fill="#0377BC"/>
<path d="M129.658 88.5107C105.862 88.5107 105.862 61.2766 105.862 61.2766C105.862 61.2766 105.862 88.5107 82.063 88.5107C105.862 88.5107 105.862 115.745 105.862 115.745C105.862 115.745 105.862 88.5107 129.658 88.5107Z" fill="#FFDC00"/>
<path d="M92.2758 136.17C68.4801 136.17 68.4801 163.404 68.4801 163.404C68.4801 163.404 68.4801 163.166 68.446 162.723C68.2758 158.536 66.2333 136.17 44.6843 136.17C66.2333 136.17 68.2758 113.804 68.446 109.617C68.4801 109.174 68.4801 108.936 68.4801 108.936C68.4801 108.936 68.4801 136.17 92.2758 136.17Z" fill="#FFDC00"/>
<path d="M221.638 141.277C221.628 132.82 214.775 125.967 206.319 125.957H173.978V90.1209L183.044 101.198C184.988 103.557 187.885 104.921 190.942 104.916H191.034C194.096 104.899 196.986 103.499 198.897 101.106L217.621 77.726C220.524 74.1142 220.632 69.0005 217.883 65.2698L188.875 25.6919C185.029 20.4739 180.004 16.2386 174.21 13.3311L152.559 2.48851C152.263 2.34213 151.953 2.2366 151.65 2.10383H151.616C148.563 0.733562 145.257 0.0169464 141.91 0H97.1102C93.7722 0.0148554 90.4739 0.724373 87.4251 2.0834L87.3638 2.11064C87.0506 2.24681 86.7374 2.35574 86.4276 2.50553L64.814 13.3311C59.0172 16.2388 53.9907 20.4768 50.1451 25.6987L21.1476 65.2426C18.3933 68.9709 18.4953 74.0866 21.3962 77.7021L40.1196 101.083C42.0314 103.488 44.9311 104.897 48.0038 104.912H48.0957C51.1601 104.914 54.0631 103.539 56.0038 101.168L65.0421 90.1106V109.617V109.665C64.8889 113.637 63.1493 132.766 44.6813 132.766C42.8011 132.766 41.277 134.29 41.277 136.17C41.277 138.05 42.8011 139.574 44.6813 139.574C63.0642 139.574 64.8753 158.74 65.0489 162.686V162.723V194.043C65.0489 199.683 69.6213 204.255 75.2617 204.255H206.319C212.83 204.284 218.641 200.178 220.788 194.031C222.935 187.884 220.943 181.052 215.83 177.021C219.496 174.155 221.638 169.76 221.638 165.106C221.638 160.453 219.496 156.058 215.83 153.192C219.483 150.314 221.621 145.926 221.638 141.277V141.277ZM212.31 73.4468L193.587 96.8375C192.947 97.6329 191.983 98.099 190.962 98.1072C189.938 98.0885 188.969 97.6415 188.29 96.8749L185.621 93.6102L208.467 63.9217L212.402 69.2902C213.319 70.5357 213.282 72.2431 212.31 73.4468ZM119.51 30.6383C135.282 30.6383 148.766 21.9098 152.487 10.0664L158.639 13.1472C153.529 27.3736 137.553 37.4468 119.51 37.4468C101.468 37.4468 85.4915 27.3736 80.3817 13.1472L86.5366 10.0664C90.254 21.9098 103.738 30.6383 119.51 30.6383V30.6383ZM141.91 6.80851C143.352 6.814 144.788 7.00274 146.183 7.37021C143.725 16.7796 132.623 23.8298 119.51 23.8298C106.397 23.8298 95.2957 16.7796 92.8379 7.37021C94.2325 7.00328 95.6681 6.81455 97.1102 6.80851H141.91ZM48.0617 98.1072C47.0392 98.1021 46.074 97.6339 45.437 96.8341L26.7136 73.4434C25.7428 72.2352 25.7106 70.5238 26.6353 69.28L30.5638 63.9217L53.4064 93.6068L50.7442 96.8613C50.0558 97.6229 49.0877 98.0725 48.0617 98.1072V98.1072ZM59.7859 85.8111L57.8319 88.194L34.7442 58.2128L55.6259 29.7362C58.831 25.3742 63.0238 21.8336 67.8608 19.4043L74.2711 16.194C80.6302 32.6809 98.9315 44.2553 119.51 44.2553C140.089 44.2553 158.39 32.6809 164.749 16.2077L171.163 19.4213C175.993 21.844 180.181 25.3736 183.388 29.7226L204.276 58.2128L181.195 88.2077L179.255 85.8247C177.437 83.5952 174.414 82.7489 171.703 83.7105C168.991 84.672 167.177 87.2339 167.17 90.1106V125.957H124.617C118.106 125.929 112.294 130.035 110.147 136.182C108.001 142.329 109.992 149.161 115.105 153.192C111.439 156.058 109.297 160.453 109.297 165.106C109.297 169.76 111.439 174.155 115.105 177.021C113.866 177.985 112.782 179.133 111.891 180.426H71.8506V163.561C71.8506 163.506 71.8813 163.459 71.8813 163.404C71.8813 162.431 72.1128 139.574 92.2762 139.574C94.1563 139.574 95.6804 138.05 95.6804 136.17C95.6804 134.29 94.1563 132.766 92.2762 132.766C72.2115 132.766 71.8847 109.903 71.8813 108.936C71.8813 108.882 71.854 108.834 71.8506 108.78V90.1106C71.8388 87.2419 70.0301 84.6883 67.3278 83.7252C64.6254 82.7622 61.6094 83.5963 59.7859 85.8111V85.8111ZM58.1927 136.17C62.754 133.382 66.3451 129.256 68.477 124.354C70.6102 129.257 74.2025 133.383 78.7647 136.17C74.2025 138.958 70.6102 143.084 68.477 147.986C66.3451 143.084 62.754 138.958 58.1927 136.17ZM71.8506 194.043V187.234H109.471C109.38 187.798 109.322 188.366 109.297 188.936C109.296 191.968 110.199 194.931 111.891 197.447H75.2549C73.3748 197.447 71.8506 195.923 71.8506 194.043ZM214.829 188.936C214.829 193.636 211.019 197.447 206.319 197.447H124.617C119.916 197.447 116.106 193.636 116.106 188.936C116.106 184.236 119.916 180.426 124.617 180.426H206.319C211.019 180.426 214.829 184.236 214.829 188.936ZM214.829 165.106C214.829 169.807 211.019 173.617 206.319 173.617H124.617C119.916 173.617 116.106 169.807 116.106 165.106C116.106 160.406 119.916 156.596 124.617 156.596H206.319C211.019 156.596 214.829 160.406 214.829 165.106ZM124.617 149.787C119.916 149.787 116.106 145.977 116.106 141.277C116.106 136.576 119.916 132.766 124.617 132.766H206.319C211.019 132.766 214.829 136.576 214.829 141.277C214.829 145.977 211.019 149.787 206.319 149.787H124.617Z" fill="black"/>
<path d="M82.0629 91.9149C102.128 91.9149 102.454 114.778 102.458 115.745C102.458 117.625 103.982 119.149 105.862 119.149C107.742 119.149 109.266 117.625 109.266 115.745C109.266 114.771 109.498 91.9149 129.658 91.9149C131.538 91.9149 133.062 90.3908 133.062 88.5107C133.062 86.6306 131.538 85.1064 129.658 85.1064C109.593 85.1064 109.27 62.2434 109.266 61.2766C109.266 59.3965 107.742 57.8724 105.862 57.8724C103.982 57.8724 102.458 59.3965 102.458 61.2766C102.458 62.2502 102.226 85.1064 82.0629 85.1064C80.1828 85.1064 78.6587 86.6306 78.6587 88.5107C78.6587 90.3908 80.1828 91.9149 82.0629 91.9149ZM105.862 76.6945C107.994 81.5968 111.585 85.7228 116.146 88.5107C111.585 91.2986 107.994 95.4246 105.862 100.327C103.729 95.4243 100.137 91.2984 95.5744 88.5107C100.137 85.723 103.729 81.597 105.862 76.6945Z" fill="black"/>
<path d="M106.024 295.972L51.8618 241.811L75.9469 217.726L106.024 247.887L190.262 163.564L214.347 187.649L106.024 295.972Z" fill="#323232"/>
</svg>
