<svg width="251" height="235" viewBox="0 0 251 235" fill="none" xmlns="http://www.w3.org/2000/svg">
<path d="M251 56C251 97.4214 163.204 235 119.693 235C76.1813 235 0.692749 135.421 0.692749 94C0.692749 52.5786 76.1813 0 119.693 0C163.204 0 251 14.5787 251 56Z" fill="white"/>
<path d="M199.125 47.25H42.875V78.5H199.125V47.25Z" fill="#79BD9A"/>
<path d="M67.875 37.875C67.875 34.4232 65.0769 31.625 61.625 31.625C58.1731 31.625 55.375 34.4232 55.375 37.875V56.625C55.375 60.0769 58.1731 62.875 61.625 62.875C65.0769 62.875 67.875 60.0769 67.875 56.625V37.875Z" fill="white"/>
<path d="M92.875 37.875C92.875 34.4232 90.0769 31.625 86.625 31.625C83.1731 31.625 80.375 34.4232 80.375 37.875V56.625C80.375 60.0769 83.1731 62.875 86.625 62.875C90.0769 62.875 92.875 60.0769 92.875 56.625V37.875Z" fill="white"/>
<path d="M161.625 37.875C161.625 34.4232 158.827 31.625 155.375 31.625C151.923 31.625 149.125 34.4232 149.125 37.875V56.625C149.125 60.0769 151.923 62.875 155.375 62.875C158.827 62.875 161.625 60.0769 161.625 56.625V37.875Z" fill="white"/>
<path d="M186.625 37.875C186.625 34.4232 183.827 31.625 180.375 31.625C176.923 31.625 174.125 34.4232 174.125 37.875V56.625C174.125 60.0769 176.923 62.875 180.375 62.875C183.827 62.875 186.625 60.0769 186.625 56.625V37.875Z" fill="white"/>
<path d="M186.625 56.625C186.625 58.2825 185.967 59.8722 184.794 61.0444C183.622 62.2166 182.032 62.875 180.375 62.875C178.718 62.875 177.128 62.2166 175.956 61.0444C174.783 59.8722 174.125 58.2825 174.125 56.625V37.875C174.13 36.2189 174.79 34.6321 175.961 33.461C177.132 32.29 178.719 31.6299 180.375 31.625V50.375C180.38 52.0309 181.04 53.6178 182.211 54.7891C183.382 55.96 184.969 56.62 186.625 56.625Z" fill="#CFF09E"/>
<path d="M161.625 56.625C161.625 58.2825 160.967 59.8722 159.794 61.0444C158.622 62.2166 157.032 62.875 155.375 62.875C153.718 62.875 152.128 62.2166 150.956 61.0444C149.783 59.8722 149.125 58.2825 149.125 56.625V37.875C149.13 36.2189 149.79 34.6321 150.961 33.461C152.132 32.29 153.719 31.6299 155.375 31.625V50.375C155.38 52.0309 156.04 53.6178 157.211 54.7891C158.382 55.96 159.969 56.62 161.625 56.625Z" fill="#CFF09E"/>
<path d="M92.875 56.625C92.875 58.2825 92.2166 59.8722 91.0444 61.0444C89.8722 62.2166 88.2825 62.875 86.625 62.875C84.9675 62.875 83.3778 62.2166 82.2056 61.0444C81.0334 59.8722 80.375 58.2825 80.375 56.625V37.875C80.38 36.2189 81.04 34.6321 82.2109 33.461C83.3822 32.29 84.9691 31.6299 86.625 31.625V50.375C86.63 52.0309 87.29 53.6178 88.4609 54.7891C89.6322 55.96 91.2191 56.62 92.875 56.625Z" fill="#CFF09E"/>
<path d="M67.875 56.625C67.875 58.2825 67.2166 59.8722 66.0444 61.0444C64.8722 62.2166 63.2825 62.875 61.625 62.875C59.9675 62.875 58.3778 62.2166 57.2056 61.0444C56.0334 59.8722 55.375 58.2825 55.375 56.625V37.875C55.38 36.2189 56.04 34.6321 57.2109 33.461C58.3822 32.29 59.9691 31.6299 61.625 31.625V50.375C61.63 52.0309 62.29 53.6178 63.4609 54.7891C64.6322 55.96 66.2191 56.62 67.875 56.625Z" fill="#CFF09E"/>
<path d="M199.125 78.5H42.875V191H199.125V78.5Z" fill="white"/>
<path d="M199.125 169.125V191H42.875V78.5H105.375V125.375C105.371 131.619 106.708 137.791 109.296 143.474C111.883 149.156 115.662 154.217 120.375 158.313C123.55 149.598 129.614 142.234 137.558 137.447C145.502 132.659 154.847 130.737 164.035 132.002C173.224 133.266 181.702 137.639 188.058 144.394C194.414 151.148 198.265 159.877 198.969 169.125H199.125Z" fill="#CFF09E"/>
<path d="M105.375 112.875C110.553 112.875 114.75 108.678 114.75 103.5C114.75 98.3222 110.553 94.125 105.375 94.125C100.197 94.125 96 98.3222 96 103.5C96 108.678 100.197 112.875 105.375 112.875Z" fill="#DDDDDD"/>
<path d="M139.75 112.875C144.928 112.875 149.125 108.678 149.125 103.5C149.125 98.3222 144.928 94.125 139.75 94.125C134.572 94.125 130.375 98.3222 130.375 103.5C130.375 108.678 134.572 112.875 139.75 112.875Z" fill="#DDDDDD"/>
<path d="M174.125 112.875C179.303 112.875 183.5 108.678 183.5 103.5C183.5 98.3222 179.303 94.125 174.125 94.125C168.947 94.125 164.75 98.3222 164.75 103.5C164.75 108.678 168.947 112.875 174.125 112.875Z" fill="#DDDDDD"/>
<path d="M105.375 144.125C110.553 144.125 114.75 139.928 114.75 134.75C114.75 129.572 110.553 125.375 105.375 125.375C100.197 125.375 96 129.572 96 134.75C96 139.928 100.197 144.125 105.375 144.125Z" fill="#DDDDDD"/>
<path d="M139.75 144.125C144.928 144.125 149.125 139.928 149.125 134.75C149.125 129.572 144.928 125.375 139.75 125.375C134.572 125.375 130.375 129.572 130.375 134.75C130.375 139.928 134.572 144.125 139.75 144.125Z" fill="#DDDDDD"/>
<path d="M174.75 144.125C179.928 144.125 184.125 139.928 184.125 134.75C184.125 129.572 179.928 125.375 174.75 125.375C169.572 125.375 165.375 129.572 165.375 134.75C165.375 139.928 169.572 144.125 174.75 144.125Z" fill="#DDDDDD"/>
<path d="M139.75 174.125C144.928 174.125 149.125 169.928 149.125 164.75C149.125 159.572 144.928 155.375 139.75 155.375C134.572 155.375 130.375 159.572 130.375 164.75C130.375 169.928 134.572 174.125 139.75 174.125Z" fill="#DDDDDD"/>
<path d="M174.75 174.125C179.928 174.125 184.125 169.928 184.125 164.75C184.125 159.572 179.928 155.375 174.75 155.375C169.572 155.375 165.375 159.572 165.375 164.75C165.375 169.928 169.572 174.125 174.75 174.125Z" fill="#DDDDDD"/>
<path d="M71 175.375C76.1778 175.375 80.375 171.178 80.375 166C80.375 160.822 76.1778 156.625 71 156.625C65.8222 156.625 61.625 160.822 61.625 166C61.625 171.178 65.8222 175.375 71 175.375Z" fill="#DDDDDD"/>
<path d="M105.375 175.375C110.553 175.375 114.75 171.178 114.75 166C114.75 160.822 110.553 156.625 105.375 156.625C100.197 156.625 96 160.822 96 166C96 171.178 100.197 175.375 105.375 175.375Z" fill="#DDDDDD"/>
<path d="M77.25 91H36.625C34.9674 91 33.3777 91.6584 32.2056 92.8306C31.0335 94.0028 30.375 95.5925 30.375 97.25V137.875C30.375 139.532 31.0335 141.122 32.2056 142.294C33.3777 143.467 34.9674 144.125 36.625 144.125H55.375L74.125 156.625V144.125H77.25C78.9075 144.125 80.4972 143.467 81.6694 142.294C82.8416 141.122 83.5 139.532 83.5 137.875V97.25C83.5 95.5925 82.8416 94.0028 81.6694 92.8306C80.4972 91.6584 78.9075 91 77.25 91Z" fill="#79BD9A"/>
<path d="M105.375 91C102.903 91 100.486 91.7331 98.4303 93.1066C96.3747 94.48 94.7725 96.4325 93.8266 98.7166C92.8803 101.001 92.6328 103.514 93.1153 105.939C93.5975 108.363 94.7881 110.591 96.5363 112.339C98.2844 114.087 100.512 115.278 102.936 115.76C105.361 116.242 107.874 115.995 110.158 115.048C112.443 114.102 114.395 112.5 115.768 110.445C117.142 108.389 117.875 105.972 117.875 103.5C117.875 100.185 116.558 97.0053 114.214 94.6613C111.87 92.3169 108.69 91 105.375 91ZM105.375 109.75C104.139 109.75 102.931 109.383 101.903 108.697C100.875 108.01 100.074 107.034 99.6006 105.892C99.1278 104.75 99.0041 103.493 99.245 102.281C99.4863 101.068 100.082 99.9547 100.956 99.0806C101.83 98.2066 102.943 97.6113 104.156 97.37C105.368 97.1291 106.625 97.2528 107.767 97.7256C108.909 98.1988 109.885 99 110.572 100.028C111.258 101.056 111.625 102.264 111.625 103.5C111.625 105.158 110.967 106.747 109.794 107.919C108.622 109.092 107.033 109.75 105.375 109.75Z" fill="#3B8686"/>
<path d="M139.75 116C142.222 116 144.639 115.267 146.695 113.893C148.75 112.52 150.352 110.568 151.298 108.283C152.245 105.999 152.492 103.486 152.01 101.061C151.528 98.6366 150.337 96.4094 148.589 94.6613C146.841 92.9131 144.613 91.7225 142.189 91.2403C139.764 90.7578 137.251 91.0053 134.967 91.9516C132.682 92.8975 130.73 94.4997 129.357 96.5553C127.983 98.6109 127.25 101.028 127.25 103.5C127.25 106.815 128.567 109.995 130.911 112.339C133.255 114.683 136.435 116 139.75 116ZM139.75 97.25C140.986 97.25 142.194 97.6166 143.222 98.3034C144.25 98.99 145.051 99.9663 145.524 101.108C145.997 102.25 146.121 103.507 145.88 104.719C145.639 105.932 145.043 107.045 144.169 107.919C143.295 108.793 142.182 109.389 140.969 109.63C139.757 109.871 138.5 109.747 137.358 109.274C136.216 108.801 135.24 108 134.553 106.972C133.867 105.944 133.5 104.736 133.5 103.5C133.5 101.843 134.158 100.253 135.331 99.0806C136.503 97.9084 138.093 97.25 139.75 97.25Z" fill="#3B8686"/>
<path d="M174.125 116C176.597 116 179.014 115.267 181.07 113.893C183.125 112.52 184.727 110.568 185.673 108.283C186.62 105.999 186.867 103.486 186.385 101.061C185.903 98.6366 184.712 96.4094 182.964 94.6613C181.216 92.9131 178.988 91.7225 176.564 91.2403C174.139 90.7578 171.626 91.0053 169.342 91.9516C167.057 92.8975 165.105 94.4997 163.732 96.5553C162.358 98.6109 161.625 101.028 161.625 103.5C161.625 106.815 162.942 109.995 165.286 112.339C167.63 114.683 170.81 116 174.125 116ZM174.125 97.25C175.361 97.25 176.569 97.6166 177.597 98.3034C178.625 98.99 179.426 99.9663 179.899 101.108C180.372 102.25 180.496 103.507 180.255 104.719C180.014 105.932 179.418 107.045 178.544 107.919C177.67 108.793 176.557 109.389 175.344 109.63C174.132 109.871 172.875 109.747 171.733 109.274C170.591 108.801 169.615 108 168.928 106.972C168.242 105.944 167.875 104.736 167.875 103.5C167.875 101.843 168.533 100.253 169.706 99.0806C170.878 97.9084 172.468 97.25 174.125 97.25Z" fill="#3B8686"/>
<path d="M105.375 122.25C102.903 122.25 100.486 122.983 98.4303 124.357C96.3747 125.73 94.7725 127.682 93.8266 129.967C92.8803 132.251 92.6328 134.764 93.1153 137.189C93.5975 139.613 94.7881 141.841 96.5363 143.589C98.2844 145.337 100.512 146.528 102.936 147.01C105.361 147.492 107.874 147.245 110.158 146.298C112.443 145.352 114.395 143.75 115.768 141.695C117.142 139.639 117.875 137.222 117.875 134.75C117.875 131.435 116.558 128.255 114.214 125.911C111.87 123.567 108.69 122.25 105.375 122.25ZM105.375 141C104.139 141 102.931 140.633 101.903 139.947C100.875 139.26 100.074 138.284 99.6006 137.142C99.1278 136 99.0041 134.743 99.245 133.531C99.4863 132.318 100.082 131.205 100.956 130.331C101.83 129.457 102.943 128.861 104.156 128.62C105.368 128.379 106.625 128.503 107.767 128.976C108.909 129.449 109.885 130.25 110.572 131.278C111.258 132.306 111.625 133.514 111.625 134.75C111.625 136.408 110.967 137.997 109.794 139.169C108.622 140.342 107.033 141 105.375 141Z" fill="#3B8686"/>
<path d="M105.375 153.5C102.903 153.5 100.486 154.233 98.4303 155.607C96.3747 156.98 94.7725 158.932 93.8266 161.217C92.8803 163.501 92.6328 166.014 93.1153 168.439C93.5975 170.863 94.7881 173.091 96.5363 174.839C98.2844 176.587 100.512 177.778 102.936 178.26C105.361 178.742 107.874 178.495 110.158 177.548C112.443 176.602 114.395 175 115.768 172.945C117.142 170.889 117.875 168.472 117.875 166C117.875 162.685 116.558 159.505 114.214 157.161C111.87 154.817 108.69 153.5 105.375 153.5ZM105.375 172.25C104.139 172.25 102.931 171.883 101.903 171.197C100.875 170.51 100.074 169.534 99.6006 168.392C99.1278 167.25 99.0041 165.993 99.245 164.781C99.4863 163.568 100.082 162.455 100.956 161.581C101.83 160.707 102.943 160.111 104.156 159.87C105.368 159.629 106.625 159.753 107.767 160.226C108.909 160.699 109.885 161.5 110.572 162.528C111.258 163.556 111.625 164.764 111.625 166C111.625 167.658 110.967 169.247 109.794 170.419C108.622 171.592 107.033 172.25 105.375 172.25Z" fill="#3B8686"/>
<path d="M168.25 99H208.879C210.537 99 212.127 99.6585 213.299 100.831C214.471 102.003 215.13 103.593 215.13 105.25V145.879C215.13 147.536 214.471 149.126 213.299 150.298C212.127 151.471 210.537 152.129 208.879 152.129H190.128L171.376 164.63V152.129H168.25C166.593 152.129 165.003 151.471 163.831 150.298C162.658 149.126 162 147.536 162 145.879V105.25C162 103.593 162.658 102.003 163.831 100.831C165.003 99.6585 166.593 99 168.25 99Z" fill="#79BD9A"/>
<path d="M187.77 121.438L186.854 123.727C184.362 129.955 183.082 135.509 183.082 142.219C189.293 142.219 199.068 142.219 199.918 142.219C199.918 131.068 195.959 123.621 195.23 121.438C193.633 121.438 190.561 121.438 187.77 121.438Z" fill="#FF8095"/>
<path d="M195.831 109.78C195.357 109.25 194.665 108.938 193.668 108.938C192.846 108.938 192.074 109.15 191.402 109.521C189.958 110.32 188.98 111.858 188.98 113.625C188.98 112.033 188.186 110.627 186.973 109.78C186.215 110.627 186.012 112.033 186.012 113.625C186.012 116.214 186.548 118.312 189.137 118.312C191.135 118.312 193.102 118.312 193.668 118.312C196.257 118.312 196.793 116.214 196.793 113.625C196.793 112.033 196.589 110.627 195.831 109.78Z" fill="#FF8095"/>
<path d="M182.73 118.312V121.438C185.494 121.438 192.753 121.438 195.23 121.438V118.312C195.259 118.312 193.515 118.312 182.73 118.312Z" fill="white"/>
<path d="M196.031 139.094C196.031 139.525 196.381 139.875 196.812 139.875C197.244 139.875 197.594 139.525 197.594 139.094C197.594 138.663 197.244 138.312 196.812 138.312C196.381 138.312 196.031 138.663 196.031 139.094Z" fill="black"/>
<path d="M181.109 123.436C178.426 130.144 177.281 135.761 177.281 142.219C177.281 142.65 177.631 143 178.062 143H199.938C200.369 143 200.719 142.65 200.719 142.219C200.719 138.87 200.402 135.734 199.75 132.632C199.142 129.734 198.206 126.726 196.891 123.436L196.031 121.287V118.372C196.382 118.096 196.675 117.743 196.909 117.311C197.376 116.444 197.594 115.273 197.594 113.625C197.594 111.031 197.028 108.634 194.469 108.217V103.781C194.469 103.35 194.119 103 193.688 103C193.256 103 192.906 103.35 192.906 103.781V108.212C191.249 108.45 189.83 109.434 189 110.811C188.17 109.434 186.751 108.45 185.094 108.212V103.781C185.094 103.35 184.744 103 184.312 103C183.881 103 183.531 103.35 183.531 103.781V108.217C180.971 108.634 180.406 111.032 180.406 113.625C180.406 115.273 180.624 116.444 181.091 117.311C181.325 117.743 181.618 118.096 181.969 118.372V121.287L181.109 123.436ZM198.221 132.953C198.8 135.706 199.105 138.49 199.15 141.438H178.85C178.94 135.514 180.064 130.256 182.56 124.017L183.279 122.219C186.68 122.219 190.955 122.219 194.721 122.219L195.44 124.017C196.722 127.221 197.631 130.144 198.221 132.953ZM189.781 120.656H188.219V119.094H189.781V120.656ZM194.469 119.094V120.656H191.344V119.094H194.469ZM184.312 109.719C186.466 109.719 188.219 111.471 188.219 113.625C188.219 114.056 188.569 114.406 189 114.406C189.431 114.406 189.781 114.056 189.781 113.625C189.781 111.471 191.534 109.719 193.688 109.719C195.094 109.719 196.031 110.383 196.031 113.625C196.031 116.867 195.094 117.531 193.688 117.531C192.515 117.531 185.336 117.531 184.312 117.531C182.906 117.531 181.969 116.867 181.969 113.625C181.969 110.383 182.906 109.719 184.312 109.719ZM186.656 119.094V120.656H183.531V119.094H186.656Z" fill="black"/>
<path d="M192.974 124.161C192.573 124.322 192.379 124.776 192.539 125.177C193.974 128.764 195.114 131.846 195.648 136.091C195.698 136.486 196.035 136.774 196.422 136.774C196.455 136.774 196.488 136.772 196.521 136.768C196.949 136.714 197.253 136.323 197.199 135.895C196.641 131.466 195.466 128.289 193.99 124.597C193.829 124.196 193.374 124.001 192.974 124.161Z" fill="black"/>
<path d="M73.5313 135.094H78.2188C77.5867 131.62 77.9727 119.812 69.9336 107.743C69.9352 107.737 69.936 107.732 69.9375 107.727L67.2945 105.266H50.7055L49.1459 106.718C51.3167 110.632 52.5937 117.063 52.3236 124.282C52.1751 128.251 51.5776 131.947 50.6616 135.094C54.1652 135.094 67.2404 135.094 68.1477 135.094C69.0979 135.094 69.8231 133.786 69.6954 132.852C69.5481 132.311 68.4297 126.013 68.5657 118.909L73.5313 135.094Z" fill="#7EC2DB"/>
<path d="M78.2188 135.094H73.5312V138.219H78.2188V135.094Z" fill="white"/>
<path d="M68.375 135.094V138.219H49.625V135.094L49.6305 135.07C49.7031 135.085 68.2969 135.085 68.3695 135.07L68.375 135.094Z" fill="white"/>
<path d="M67.2945 105.266L66.0374 101.496L66.0312 101.477C64.1476 100.347 61.5734 99.7812 58.9999 99.7812C56.4265 99.7812 53.8523 100.347 51.9687 101.477L51.9624 101.496L50.7054 105.266C50.1554 106.917 53.1515 108.212 55.8749 108.852C56.7445 109.055 57.5859 109.193 58.2757 109.253C58.7995 109.301 59.1992 109.301 59.7242 109.253C62.4147 109.019 68.0346 107.487 67.2945 105.266Z" fill="white"/>
<path d="M44.4688 135.094H39.7812V138.219H44.4688V135.094Z" fill="white"/>
<path d="M59 126.031C59.4312 126.031 59.7812 125.681 59.7812 125.25C59.7812 124.819 59.4312 124.469 59 124.469C58.5688 124.469 58.2188 124.819 58.2188 125.25C58.2188 125.681 58.5688 126.031 59 126.031Z" fill="black"/>
<path d="M39.7812 139H44.4688C44.9002 139 45.25 138.65 45.25 138.219V135.211L48.5753 124.341C48.3341 127.126 47.9252 129.86 47.5305 132.746C47.3951 133.737 47.9259 135.009 48.8438 135.577V138.219C48.8438 138.65 49.1936 139 49.625 139H68.375C68.8064 139 69.1562 138.65 69.1562 138.219V135.578C70.1791 134.945 70.6545 133.476 70.4538 132.664C70.2104 131.57 69.6955 128.145 69.4714 124.525L72.75 135.211V138.219C72.75 138.65 73.0998 139 73.5312 139H78.2188C78.6502 139 79 138.65 79 138.219V135.094C79 135.085 78.999 135.078 78.9988 135.069C78.989 134.769 78.9654 135.277 78.7075 132.473C78.4765 129.961 78.1273 126.164 76.9999 121.781C75.6652 116.592 73.53 111.76 70.6537 107.416C70.5371 107.147 70.5652 107.275 67.9727 104.83L66.8048 101.327C66.7585 101.116 66.6214 100.919 66.4332 100.806C64.4905 99.6416 61.8508 99 59 99C56.1492 99 53.5095 99.6416 51.5669 100.807C51.3836 100.917 51.2434 101.11 51.1956 101.326L50.0273 104.83C47.4007 107.276 47.483 107.187 47.4125 107.293C44.4977 111.665 42.3383 116.535 40.9942 121.768C39.868 126.152 39.5213 129.952 39.2918 132.466C39.0672 134.927 39 134.899 39 135.094V138.219C39 138.65 39.3498 139 39.7812 139ZM43.6875 137.438H40.5625V135.875H43.6875V137.438ZM50.4062 137.438V135.875H67.5938V137.438H50.4062ZM77.4375 137.438H74.3125V135.875H77.4375V137.438ZM77.1516 132.616C77.2109 133.26 77.2629 133.825 77.3192 134.312H74.1088L69.3498 118.801C69.4174 115.554 69.7312 112.519 70.2848 109.75C75.8969 118.977 76.706 127.771 77.1516 132.616ZM66.5009 105.921C65.8136 107.152 62.4166 108.031 61.0108 108.287C62.0929 106.011 63.3844 104.199 65.6116 102.689L66.5533 105.513C66.5536 105.514 66.5537 105.515 66.5541 105.516C66.5876 105.617 66.6036 105.737 66.5009 105.921ZM51.4992 105.921C51.3966 105.737 51.4124 105.618 51.4457 105.517C51.4462 105.515 51.4466 105.514 51.447 105.512L52.3767 102.724C54.2816 104.134 55.6026 105.947 56.873 108.264C55.4552 107.996 52.1713 107.124 51.4992 105.921ZM64.4808 101.572C61.8518 103.436 60.4091 105.726 59.1958 108.504C59.0405 108.509 58.9414 108.509 58.7692 108.503C57.2998 105.66 55.7706 103.352 53.4718 101.593C55.0294 100.932 56.9762 100.562 59 100.562C61.0032 100.562 62.9312 100.924 64.4808 101.572ZM50.2055 106.799C51.0759 108.176 53.4245 109.019 55.0938 109.461V119C55.0938 119.431 55.4436 119.781 55.875 119.781C56.3064 119.781 56.6562 119.431 56.6562 119V109.813C57.3699 109.946 58.2702 110.07 59 110.07C59.5316 110.07 60.1563 110.034 61.3438 109.814V119C61.3438 119.431 61.6936 119.781 62.125 119.781C62.5564 119.781 62.9062 119.431 62.9062 119V109.462C64.5755 109.019 66.9241 108.177 67.7945 106.799L69.0703 107.987C68.2917 111.265 67.8594 114.931 67.7846 118.894C67.7846 118.896 67.7845 118.898 67.7845 118.901C67.7845 118.903 67.7844 118.906 67.7844 118.908C67.6929 123.74 68.145 127.961 68.5141 130.53C66.1801 129.898 64.4688 127.746 64.4688 125.25C64.4688 124.819 64.1189 124.469 63.6875 124.469H62.125C61.6936 124.469 61.3438 124.819 61.3438 125.25C61.3438 125.681 61.6936 126.031 62.125 126.031H62.9494C63.2943 129.144 65.6749 131.668 68.7748 132.185C68.8409 132.565 68.8952 132.847 68.9243 132.983C68.9776 133.491 68.5823 134.224 68.2058 134.306C68.1844 134.31 68.1652 134.312 68.1477 134.312H49.8523C49.8347 134.312 49.8156 134.31 49.796 134.306C49.4113 134.223 49.0091 133.466 49.0787 132.957C49.1137 132.701 49.1489 132.447 49.1841 132.192C52.2898 131.692 54.7013 129.15 55.0502 126.031H55.875C56.3064 126.031 56.6562 125.681 56.6562 125.25C56.6562 124.819 56.3064 124.469 55.875 124.469H54.3125C53.8811 124.469 53.5312 124.819 53.5312 125.25C53.5312 127.78 51.7859 129.944 49.4113 130.55C49.9575 126.591 50.4382 122.793 50.342 118.525C50.2648 115.049 49.8027 111.596 48.9308 107.986L50.2055 106.799ZM47.7216 109.715C48.3514 112.654 48.6972 115.497 48.7737 118.351L43.8908 134.312H40.6805C41.1708 130.055 41.3441 120.182 47.7216 109.715Z" fill="black"/>
</svg>
